<?xml version="1.0" encoding="iso-8859-1"?>
<!-- Generator: Adobe Illustrator 19.0.0, SVG Export Plug-In . SVG Version: 6.00 Build 0)  -->
<svg version="1.1" id="Capa_1" xmlns="http://www.w3.org/2000/svg" xmlns:xlink="http://www.w3.org/1999/xlink" x="0px" y="0px"
	 viewBox="0 0 512 512" style="enable-background:new 0 0 512 512;" xml:space="preserve">
<path style="fill:#A24F3D;" d="M320.025,121.8l-4.799,23.099c-1.199,6.601-6.601,11.4-13.2,11.7c-0.3,0.3-0.901,0.3-1.5,0.3
	c-0.901,0-1.8,0-2.701-0.3c-8.399-1.5-13.5-9.6-11.999-17.699l4.799-23.101c1.8-9.901-0.601-20.4-7.2-28.2
	c-6.6-8.1-16.198-12.599-26.399-12.599c-8.401,0-15-6.601-15-15c0-8.401,6.599-15,15-15c16.8,0,33.3,6.899,45,18.6
	c1.5,1.5,2.999,2.999,4.501,4.799C318.826,83.399,323.625,102.9,320.025,121.8z"/>
<path style="fill:#10BB67;" d="M347.026,90h-30c-8.291,0-15-6.709-15-15c0-41.353,33.647-75,75-75h30c8.291,0,15,6.709,15,15
	C422.026,56.353,388.379,90,347.026,90z"/>
<path style="fill:#8B432D;" d="M320.025,121.8l-4.799,23.099c-1.199,6.601-6.601,11.4-13.2,11.7V63.6
	c1.5,1.5,2.999,2.999,4.501,4.799C318.826,83.399,323.625,102.9,320.025,121.8z"/>
<path style="fill:#FCD5A2;" d="M506.026,349.999l-86.999,126c-16.8,22.5-43.801,36-87.001,36h-272l-30-15v-152.7l15-12.299h9.3
	c9.6,0,18.9-3.6,26.4-9.901c19.501-17.401,45.099-25.8,69.699-25.8c34.501,0,55.901,12.599,78.1,32.1c2.701,2.1,6.901,3.6,9.901,3.6
	h108.6c16.5,0,30,13.5,30,30s-13.5,30-30,30h-120c-8.401,0-15,6.599-15,15c0,8.399,6.599,15,15,15h129.901c5.7,0,16.5-3.6,22.2-9.6
	l81-100.8c10.199-11.1,27.299-12.9,39.6-3.9C513.225,317.599,515.926,336.799,506.026,349.999z"/>
<path style="fill:#B35C4B;" d="M60.026,512h-45c-8.284,0-15-6.716-15-15V317c0-8.284,6.716-15,15-15h15c16.569,0,30,13.431,30,30
	V512z"/>
<g>
	<path style="fill:#FEBB8E;" d="M347.026,392h-45v-60h45c16.5,0,30,13.5,30,30S363.526,392,347.026,392z"/>
	<path style="fill:#FEBB8E;" d="M506.026,349.999l-86.999,126c-16.8,22.5-43.801,36-87.001,36h-30v-90h54.901
		c5.7,0,16.5-3.6,22.2-9.6l81-100.8c10.199-11.1,27.299-12.9,39.6-3.9C513.225,317.599,515.926,336.799,506.026,349.999z"/>
</g>
<path style="fill:#FD3C65;" d="M383.026,111.299c-18.3-6.599-38.701-3.3-57.9,9.001c-6.901,4.499-15,6.599-23.101,6.599
	s-16.199-2.1-23.101-6.599c-19.199-12.301-39.6-15.601-57.9-9.001c-39.3,14.401-54.6,71.001-34.499,126.2
	c20.099,55.501,66.899,87.599,106.5,73.2c2.999-1.199,6-2.699,9-4.499c2.999,1.8,6,3.3,9,4.499
	c44.401,16.199,89.101-25.499,106.5-73.2c6-16.5,8.701-33.999,8.701-49.3C426.227,152.199,410.626,121.5,383.026,111.299z"/>
<path style="fill:#FD003A;" d="M311.026,310.699c-2.999-1.199-6-2.699-9-4.499V126.899c8.101,0,16.199-2.1,23.101-6.599
	c19.199-12.301,39.6-15.601,57.9-9.001c27.599,10.201,43.2,40.901,43.2,76.901c0,15.3-2.701,32.8-8.701,49.3
	C400.127,285.2,355.427,326.899,311.026,310.699z"/>
<g>
</g>
<g>
</g>
<g>
</g>
<g>
</g>
<g>
</g>
<g>
</g>
<g>
</g>
<g>
</g>
<g>
</g>
<g>
</g>
<g>
</g>
<g>
</g>
<g>
</g>
<g>
</g>
<g>
</g>
</svg>
