<?xml version="1.0" encoding="iso-8859-1"?>
<!-- Generator: Adobe Illustrator 19.0.0, SVG Export Plug-In . SVG Version: 6.00 Build 0)  -->
<svg version="1.1" id="Capa_1" xmlns="http://www.w3.org/2000/svg" xmlns:xlink="http://www.w3.org/1999/xlink" x="0px" y="0px"
	 viewBox="0 0 512 512" style="enable-background:new 0 0 512 512;" xml:space="preserve">
<path style="fill:#F8CF26;" d="M138.482,100.939L344,10.655c11.252-4.999,24.441-0.259,29.95,10.75l7.455,14.91l-197.103,85.699
	L138.482,100.939z"/>
<path style="fill:#F9C764;" d="M199.784,140.1c0-23.879-19.364-43.243-43.243-43.243s-43.243,19.364-43.243,43.243
	s19.364,43.243,43.243,43.243h9.012"/>
<path style="fill:#F29200;" d="M165.189,140.1h224.865c4.774,0,8.649,3.875,8.649,8.649v17.297c0,4.774-3.875,8.649-8.649,8.649
	H165.189c-4.774,0-8.649-3.875-8.649-8.649v-17.297C156.541,143.974,160.415,140.1,165.189,140.1z"/>
<path style="fill:#F8CF26;" d="M165.189,174.694l8.649,207.568l34.595,17.297l8.649,103.784h164.324l8.649-328.649"/>
<circle style="fill:#333333;" cx="191.135" cy="460.108" r="43.243"/>
<path d="M390.054,183.343H165.189c-9.539,0-17.297-7.758-17.297-17.297v-17.297c0-9.539,7.758-17.297,17.297-17.297h224.865
	c9.539,0,17.297,7.758,17.297,17.297v17.297C407.351,175.585,399.585,183.343,390.054,183.343z M165.189,148.748h-0.009
	l0.009,17.297h224.865v-17.297H165.189z"/>
<polygon points="389.829,512 209.116,512 207.741,495.421 224.977,493.985 225.038,494.703 372.982,494.703 381.405,174.469 
	398.703,174.928 "/>
<polygon points="201.972,426.232 200.216,405.129 165.406,387.728 156.549,175.058 173.829,174.34 182.262,376.813 216.649,393.998 
	219.209,424.796 "/>
<path d="M191.135,512c-28.618,0-51.892-23.273-51.892-51.892c0-28.618,23.274-51.892,51.892-51.892s51.892,23.273,51.892,51.892
	C243.027,488.727,219.745,512,191.135,512z M191.135,425.514c-19.079,0-34.595,15.516-34.595,34.595
	c0,19.079,15.516,34.595,34.595,34.595s34.595-15.516,34.595-34.595C225.73,441.029,210.206,425.514,191.135,425.514z"/>
<path d="M165.553,191.992h-9.012c-28.618,0-51.892-23.274-51.892-51.892s23.274-51.892,51.892-51.892s51.892,23.274,51.892,51.892
	h-17.297c0-19.079-15.516-34.595-34.595-34.595s-34.595,15.516-34.595,34.595s15.516,34.595,34.595,34.595h9.012V191.992z"/>
<path d="M203.235,123.209l-6.902-15.862l173.258-75.321l-3.382-6.746c-3.434-6.902-11.684-9.834-18.698-6.711L134.106,113.41
	l-7.031-15.801L340.48,2.759c15.55-6.919,33.626-0.398,41.202,14.781l11.537,23.066L203.235,123.209z"/>
<g>
</g>
<g>
</g>
<g>
</g>
<g>
</g>
<g>
</g>
<g>
</g>
<g>
</g>
<g>
</g>
<g>
</g>
<g>
</g>
<g>
</g>
<g>
</g>
<g>
</g>
<g>
</g>
<g>
</g>
</svg>
