<?xml version="1.0" encoding="iso-8859-1"?>
<!-- Generator: Adobe Illustrator 19.0.0, SVG Export Plug-In . SVG Version: 6.00 Build 0)  -->
<svg version="1.1" id="Capa_1" xmlns="http://www.w3.org/2000/svg" xmlns:xlink="http://www.w3.org/1999/xlink" x="0px" y="0px"
	 viewBox="0 0 512 512" style="enable-background:new 0 0 512 512;" xml:space="preserve">
<path style="fill:#CC2A59;" d="M475.46,36.455c37.385,37.3,37.462,97.839,0.171,135.224c-0.051,0.06-0.111,0.111-0.171,0.171
	L340.066,307.244l-15.698-15.698l-8.531-8.531v-95.211h-95.211l-15.954-15.954c-37.155-37.624-36.779-98.24,0.836-135.395
	c37.291-36.83,97.267-36.83,134.559,0C377.459-0.913,438.067-0.913,475.46,36.455z"/>
<path style="fill:#AEBAC3;" d="M315.836,283.015v220.454H8.703V187.803h307.133V283.015z M281.71,418.153V221.929H42.829v196.224
	H281.71z M281.71,460.811c0-9.427-7.636-17.063-17.063-17.063c-9.427,0-17.063,7.636-17.063,17.063
	c0,9.427,7.636,17.063,17.063,17.063C274.058,477.848,281.685,470.221,281.71,460.811z"/>
<rect x="42.829" y="221.904" style="fill:#39C2F9;" width="238.882" height="196.224"/>
<path style="fill:#FF9EBA;" d="M324.368,179.272c-0.247,0.009-0.486,0.009-0.734,0c-3.489-0.299-6.433-2.696-7.439-6.049
	l-20.049-66.81l-15.655,26.098c-1.553,2.551-4.325,4.112-7.311,4.104H221.99v-17.063h46.36l23.112-38.52
	c2.431-4.035,7.67-5.341,11.705-2.918c1.817,1.092,3.165,2.824,3.779,4.863l19.409,64.728l33.034-66.068
	c2.107-4.215,7.235-5.921,11.449-3.814c2.022,1.015,3.558,2.79,4.274,4.931l19.093,57.246l7.84-15.706
	c1.442-2.901,4.394-4.744,7.636-4.744h42.657v17.063h-37.385l-14.657,29.408c-2.107,4.215-7.235,5.921-11.449,3.814
	c-2.022-1.015-3.558-2.79-4.274-4.931l-19.093-57.246l-33.435,66.895C330.596,177.455,327.618,179.289,324.368,179.272z"/>
<path style="fill:#1064C7;" d="M153.738,358.433h-0.358c-3.532-0.154-6.612-2.466-7.73-5.827l-8.975-26.917l-0.444,1.314
	c-1.16,3.481-4.419,5.836-8.088,5.836H94.018v-17.063h27.975l6.595-19.759c1.467-4.479,6.296-6.911,10.767-5.443
	c2.577,0.845,4.598,2.867,5.443,5.443l9.973,29.86l16.756-39.091c1.86-4.325,6.876-6.33,11.21-4.462
	c2.235,0.964,3.95,2.824,4.718,5.127l10.605,31.805c1.604-2.184,4.155-3.481,6.868-3.481h25.594v17.063h-20.322l-6.126,12.345
	c-2.107,4.215-7.235,5.921-11.449,3.814c-2.022-1.015-3.558-2.79-4.274-4.931l-9.973-29.86l-16.756,39.091
	C160.256,356.437,157.159,358.45,153.738,358.433z"/>
<path style="fill:#FFD9E4;" d="M264.647,486.405c-14.137,0-25.594-11.458-25.594-25.594c0-14.137,11.458-25.594,25.594-25.594
	c14.137,0,25.594,11.458,25.594,25.594C290.242,474.948,278.784,486.405,264.647,486.405z M264.647,452.279
	c-4.709,0-8.531,3.822-8.531,8.531c0,4.709,3.822,8.531,8.531,8.531s8.531-3.822,8.531-8.531
	C273.179,456.102,269.357,452.279,264.647,452.279z"/>
<path style="fill:#666666;" d="M281.71,426.685H42.829c-4.709,0-8.531-3.822-8.531-8.531V221.929c0-4.709,3.822-8.531,8.531-8.531
	H281.71c4.709,0,8.531,3.822,8.531,8.531v196.224C290.242,422.863,286.42,426.685,281.71,426.685z M51.36,409.622h221.819V230.461
	H51.36C51.36,230.461,51.36,409.622,51.36,409.622z"/>
<g>
	<rect x="136.675" y="452.254" style="fill:#E3E7E8;" width="17.063" height="17.063"/>
	<rect x="170.801" y="452.254" style="fill:#E3E7E8;" width="17.063" height="17.063"/>
	<rect x="204.927" y="452.254" style="fill:#E3E7E8;" width="17.063" height="17.063"/>
	<rect x="102.549" y="452.254" style="fill:#E3E7E8;" width="17.063" height="17.063"/>
	<rect x="68.423" y="452.254" style="fill:#E3E7E8;" width="17.063" height="17.063"/>
	<rect x="34.297" y="452.254" style="fill:#E3E7E8;" width="17.063" height="17.063"/>
</g>
<circle style="fill:#CC2A59;" cx="264.647" cy="460.785" r="17.063"/>
<path d="M323.634,179.272c0.247,0.009,0.486,0.009,0.734,0c3.251,0.017,6.228-1.809,7.678-4.718l33.435-66.895l19.093,57.246
	c1.493,4.47,6.322,6.885,10.792,5.392c2.141-0.717,3.916-2.252,4.931-4.274l14.657-29.408h37.385v-17.063h-42.657
	c-3.25-0.017-6.228,1.809-7.678,4.718l-7.84,15.706L375.07,82.73c-1.493-4.471-6.322-6.885-10.792-5.392
	c-2.141,0.717-3.916,2.252-4.931,4.274l-32.991,66.093l-19.409-64.703c-1.357-4.513-6.109-7.073-10.622-5.725
	c-2.03,0.606-3.771,1.954-4.863,3.779l-23.112,38.494h-46.36v17.063h51.189c2.995,0,5.767-1.57,7.311-4.138l15.655-26.098
	l20.049,66.81C317.184,176.55,320.136,178.965,323.634,179.272z"/>
<path d="M136.231,327.003l0.444-1.314l8.975,26.908c1.118,3.361,4.197,5.673,7.73,5.827h0.358c3.413,0,6.492-2.03,7.84-5.17
	l16.756-39.091l9.973,29.86c1.493,4.47,6.322,6.885,10.792,5.392c2.15-0.717,3.916-2.252,4.931-4.274l6.168-12.302h20.322v-17.063
	h-25.594c-2.73,0-5.298,1.305-6.902,3.515l-10.605-31.805c-1.493-4.47-6.33-6.876-10.801-5.383
	c-2.304,0.768-4.172,2.491-5.127,4.718l-16.756,39.091l-9.973-29.86c-1.467-4.479-6.296-6.911-10.767-5.443
	c-2.577,0.845-4.598,2.867-5.443,5.443l-6.561,19.725H94.018v17.063h34.126C131.812,332.83,135.071,330.484,136.231,327.003z"/>
<path d="M264.647,435.216c-14.137,0-25.594,11.458-25.594,25.594c0,14.137,11.458,25.594,25.594,25.594
	c14.137,0,25.594-11.458,25.594-25.594C290.242,446.674,278.784,435.216,264.647,435.216z M264.647,469.342
	c-4.709,0-8.531-3.822-8.531-8.531c0-4.709,3.822-8.531,8.531-8.531s8.531,3.822,8.531,8.531
	C273.179,465.52,269.357,469.342,264.647,469.342z"/>
<path d="M281.71,213.398H42.829c-4.709,0-8.531,3.822-8.531,8.531v196.224c0,4.709,3.822,8.531,8.531,8.531H281.71
	c4.709,0,8.531-3.822,8.531-8.531V221.929C290.242,217.22,286.42,213.398,281.71,213.398z M273.179,409.622H51.36V230.461h221.819
	V409.622z"/>
<path d="M8.703,512h307.133c4.709,0,8.531-3.822,8.531-8.531V303.593l9.683,9.683c3.327,3.327,8.736,3.327,12.064,0l135.403-135.403
	c40.593-40.849,40.388-106.874-0.461-147.475c-38.417-38.178-99.673-40.593-140.974-5.545
	C296.222-12.465,230.411-7.15,193.094,36.711c-35.158,41.335-32.744,102.719,5.563,141.162l1.399,1.399H8.703
	c-4.709,0-8.531,3.822-8.531,8.531v315.665C0.171,508.178,3.993,512,8.703,512z M210.72,165.809
	c-34.058-34.058-34.058-89.273-0.009-123.331S299.985,8.42,334.042,42.47c3.327,3.327,8.736,3.327,12.064,0
	c34.348-33.776,89.564-33.315,123.34,1.032c33.375,33.938,33.375,88.369,0,122.307L340.083,295.181l-15.715-15.715v-91.662
	c0-4.709-3.822-8.531-8.531-8.531h-91.662L210.72,165.809z M17.234,196.335h290.07v298.602H17.234
	C17.234,494.937,17.234,196.335,17.234,196.335z"/>
<rect x="136.675" y="452.254" width="17.063" height="17.063"/>
<rect x="170.801" y="452.254" width="17.063" height="17.063"/>
<rect x="204.927" y="452.254" width="17.063" height="17.063"/>
<rect x="102.549" y="452.254" width="17.063" height="17.063"/>
<rect x="68.423" y="452.254" width="17.063" height="17.063"/>
<rect x="34.297" y="452.254" width="17.063" height="17.063"/>
<g>
</g>
<g>
</g>
<g>
</g>
<g>
</g>
<g>
</g>
<g>
</g>
<g>
</g>
<g>
</g>
<g>
</g>
<g>
</g>
<g>
</g>
<g>
</g>
<g>
</g>
<g>
</g>
<g>
</g>
</svg>
