<?xml version="1.0" encoding="iso-8859-1"?>
<!-- Generator: Adobe Illustrator 19.0.0, SVG Export Plug-In . SVG Version: 6.00 Build 0)  -->
<svg version="1.1" id="Capa_1" xmlns="http://www.w3.org/2000/svg" xmlns:xlink="http://www.w3.org/1999/xlink" x="0px" y="0px"
	 viewBox="0 0 512 512" style="enable-background:new 0 0 512 512;" xml:space="preserve">
<rect x="7.447" y="68.882" style="fill:#FFFFFF;" width="497.1" height="374.22"/>
<g>
	<rect x="249.484" y="374.22" style="fill:#DAEDF7;" width="14.895" height="46.545"/>
	<rect x="279.273" y="374.22" style="fill:#DAEDF7;" width="14.895" height="46.545"/>
	<rect x="309.062" y="374.22" style="fill:#DAEDF7;" width="14.895" height="46.545"/>
	<rect x="338.851" y="374.22" style="fill:#DAEDF7;" width="14.895" height="46.545"/>
	<rect x="7.447" y="396.562" style="fill:#DAEDF7;" width="497.1" height="46.545"/>
</g>
<rect x="42.817" y="106.119" style="fill:#03C0E0;" width="342.575" height="240.17"/>
<g>
	<circle style="fill:#FF403D;" cx="55.855" cy="396.562" r="14.895"/>
	<circle style="fill:#FF403D;" cx="122.88" cy="396.562" r="14.895"/>
	<circle style="fill:#FF403D;" cx="189.905" cy="396.562" r="14.895"/>
	<rect x="383.535" y="381.668" style="fill:#FF403D;" width="89.367" height="29.789"/>
</g>
<rect x="61.44" y="128.46" style="fill:#68D9EC;" width="299.748" height="193.629"/>
<path d="M512,450.56H0V61.44h512V450.56z M14.895,435.665h482.211V76.335H14.895V435.665z"/>
<path d="M55.855,418.909c-12.32,0-22.342-10.022-22.342-22.342c0-12.32,10.022-22.342,22.342-22.342s22.342,10.022,22.342,22.342
	C78.196,408.887,68.174,418.909,55.855,418.909z M55.855,389.12c-4.107,0-7.447,3.34-7.447,7.447c0,4.107,3.34,7.447,7.447,7.447
	s7.447-3.34,7.447-7.447C63.302,392.46,59.961,389.12,55.855,389.12z"/>
<path d="M122.88,418.909c-12.32,0-22.342-10.022-22.342-22.342c0-12.32,10.022-22.342,22.342-22.342s22.342,10.022,22.342,22.342
	C145.222,408.887,135.2,418.909,122.88,418.909z M122.88,389.12c-4.107,0-7.447,3.34-7.447,7.447c0,4.107,3.34,7.447,7.447,7.447
	c4.107,0,7.447-3.34,7.447-7.447C130.327,392.46,126.987,389.12,122.88,389.12z"/>
<path d="M189.905,418.909c-12.32,0-22.342-10.022-22.342-22.342c0-12.32,10.022-22.342,22.342-22.342
	c12.32,0,22.342,10.022,22.342,22.342C212.247,408.887,202.225,418.909,189.905,418.909z M189.905,389.12
	c-4.107,0-7.447,3.34-7.447,7.447c0,4.107,3.34,7.447,7.447,7.447c4.107,0,7.447-3.34,7.447-7.447
	C197.353,392.46,194.012,389.12,189.905,389.12z"/>
<path d="M390.982,351.884H33.513V98.676h357.469V351.884z M48.407,336.989h327.68V113.571H48.407V336.989z"/>
<g>
	
		<rect x="61.936" y="217.292" transform="matrix(-0.0059 -1 1 -0.0059 -155.4373 295.9442)" style="fill:#FF403D;" width="14.895" height="15.884"/>
	<polygon style="fill:#FF403D;" points="168.989,294.972 142.309,223.83 133.411,232.727 87.505,232.727 87.505,217.833 
		127.243,217.833 148.134,196.941 166.139,244.956 197.353,120.102 229.484,248.627 255.231,197.133 273.343,217.833 
		331.404,217.833 331.404,232.727 266.585,232.727 258.631,223.638 224.799,291.301 197.353,181.513 	"/>
	<rect x="346.298" y="217.828" style="fill:#FF403D;" width="14.895" height="14.895"/>
</g>
<g>
	<rect x="61.44" y="307.195" style="fill:#FFFFFF;" width="14.895" height="14.895"/>
	<rect x="91.224" y="307.195" style="fill:#FFFFFF;" width="14.895" height="14.895"/>
	<rect x="121.013" y="307.195" style="fill:#FFFFFF;" width="14.895" height="14.895"/>
	<rect x="286.72" y="128.46" style="fill:#FFFFFF;" width="14.895" height="14.895"/>
	<rect x="316.509" y="128.46" style="fill:#FFFFFF;" width="14.895" height="14.895"/>
	<rect x="346.298" y="128.46" style="fill:#FFFFFF;" width="14.895" height="14.895"/>
</g>
<path d="M480.349,418.909H376.087v-44.684h104.262V418.909z M390.982,404.015h74.473V389.12h-74.473V404.015z"/>
<rect x="331.404" y="374.22" width="14.895" height="44.684"/>
<rect x="301.615" y="374.22" width="14.895" height="44.684"/>
<rect x="271.825" y="374.22" width="14.895" height="44.684"/>
<rect x="242.036" y="374.22" width="14.895" height="44.684"/>
<g>
	<rect x="422.628" y="98.671" style="fill:#DAEDF7;" width="14.895" height="14.895"/>
	<rect x="452.417" y="98.671" style="fill:#DAEDF7;" width="14.895" height="14.895"/>
	<rect x="437.522" y="128.46" style="fill:#DAEDF7;" width="14.895" height="14.895"/>
	<rect x="467.311" y="128.46" style="fill:#DAEDF7;" width="14.895" height="14.895"/>
	<rect x="422.628" y="158.25" style="fill:#DAEDF7;" width="14.895" height="14.895"/>
	<rect x="452.417" y="158.25" style="fill:#DAEDF7;" width="14.895" height="14.895"/>
	<rect x="437.522" y="188.039" style="fill:#DAEDF7;" width="14.895" height="14.895"/>
	<rect x="467.311" y="188.039" style="fill:#DAEDF7;" width="14.895" height="14.895"/>
	<rect x="422.628" y="217.828" style="fill:#DAEDF7;" width="14.895" height="14.895"/>
	<rect x="452.417" y="217.828" style="fill:#DAEDF7;" width="14.895" height="14.895"/>
	<rect x="437.522" y="247.617" style="fill:#DAEDF7;" width="14.895" height="14.895"/>
	<rect x="467.311" y="247.617" style="fill:#DAEDF7;" width="14.895" height="14.895"/>
	<rect x="422.628" y="277.406" style="fill:#DAEDF7;" width="14.895" height="14.895"/>
	<rect x="452.417" y="277.406" style="fill:#DAEDF7;" width="14.895" height="14.895"/>
	<rect x="437.522" y="307.195" style="fill:#DAEDF7;" width="14.895" height="14.895"/>
	<rect x="467.311" y="307.195" style="fill:#DAEDF7;" width="14.895" height="14.895"/>
</g>
<rect x="413.324" y="98.671" width="14.895" height="14.895"/>
<rect x="443.113" y="98.671" width="14.895" height="14.895"/>
<rect x="428.218" y="128.46" width="14.895" height="14.895"/>
<rect x="458.007" y="128.46" width="14.895" height="14.895"/>
<rect x="413.324" y="158.25" width="14.895" height="14.895"/>
<rect x="443.113" y="158.25" width="14.895" height="14.895"/>
<rect x="428.218" y="188.039" width="14.895" height="14.895"/>
<rect x="458.007" y="188.039" width="14.895" height="14.895"/>
<rect x="413.324" y="217.828" width="14.895" height="14.895"/>
<rect x="443.113" y="217.828" width="14.895" height="14.895"/>
<rect x="428.218" y="247.617" width="14.895" height="14.895"/>
<rect x="458.007" y="247.617" width="14.895" height="14.895"/>
<rect x="413.324" y="277.406" width="14.895" height="14.895"/>
<rect x="443.113" y="277.406" width="14.895" height="14.895"/>
<rect x="428.218" y="307.195" width="14.895" height="14.895"/>
<rect x="458.007" y="307.195" width="14.895" height="14.895"/>
<g>
</g>
<g>
</g>
<g>
</g>
<g>
</g>
<g>
</g>
<g>
</g>
<g>
</g>
<g>
</g>
<g>
</g>
<g>
</g>
<g>
</g>
<g>
</g>
<g>
</g>
<g>
</g>
<g>
</g>
</svg>
