<svg height="512pt" viewBox="0 0 512.00013 512" width="512pt" xmlns="http://www.w3.org/2000/svg"><path d="m374.296875 369.660156c-128.105469 0-231.957031-103.851562-231.957031-231.957031 0-47.1875 14.101562-91.074219 38.304687-127.703125-99.285156 34.113281-170.644531 128.300781-170.644531 239.164062 0 139.636719 113.199219 252.835938 252.835938 252.835938 110.863281 0 205.050781-71.359375 239.164062-170.644531-36.628906 24.203125-80.515625 38.304687-127.703125 38.304687zm0 0" fill="#ade5ff"/><path d="m353.667969 49.808594 33.546875 67.925781 74.976562 10.875-54.238281 52.894531 12.828125 74.664063-67.066406-35.234375-67.046875 35.273437 12.785156-74.675781-54.265625-52.867188 74.972656-10.910156zm0 0" fill="#ffc66c"/><path d="m262.835938 512c-70.207032 0-136.210938-27.339844-185.851563-76.984375-49.644531-49.640625-76.984375-115.644531-76.984375-185.851563 0-112.25 71.289062-212.164062 177.394531-248.621093 4.050781-1.390625 8.535157-.050781 11.15625 3.335937 2.621094 3.382813 2.796875 8.0625.4375 11.632813-23.976562 36.289062-36.648437 78.539062-36.648437 122.191406 0 122.386719 99.570312 221.957031 221.957031 221.957031 43.652344 0 85.90625-12.671875 122.1875-36.648437 3.574219-2.359375 8.253906-2.1875 11.636719.4375 3.386718 2.621093 4.726562 7.105469 3.335937 11.15625-36.457031 106.105469-136.371093 177.394531-248.621093 177.394531zm-105.410157-481.671875c-83.230469 40.070313-137.425781 124.765625-137.425781 218.835937 0 133.898438 108.9375 242.835938 242.835938 242.835938 94.070312 0 178.765624-54.195312 218.835937-137.425781-33.214844 16.476562-69.820313 25.085937-107.375 25.085937-64.628906 0-125.390625-25.167968-171.089844-70.867187s-70.867187-106.460938-70.867187-171.089844c0-37.554687 8.605468-74.160156 25.085937-107.375zm0 0"/><path d="m286.667969 266.207031c-2.074219 0-4.136719-.644531-5.875-1.910156-3.082031-2.234375-4.625-6.027344-3.984375-9.777344l11.902344-69.492187-50.5-49.199219c-2.726563-2.652344-3.707032-6.628906-2.53125-10.25 1.175781-3.621094 4.304687-6.257813 8.070312-6.808594l69.765625-10.15625 31.1875-63.226562c1.683594-3.414063 5.15625-5.578125 8.964844-5.578125 3.808593 0 7.28125 2.160156 8.96875 5.570312l31.21875 63.214844 69.769531 10.121094c3.769531.542968 6.898438 3.183594 8.074219 6.800781 1.179687 3.621094.199219 7.59375-2.527344 10.253906l-50.472656 49.222657 11.9375 69.484374c.644531 3.753907-.898438 7.546876-3.976563 9.78125-3.078125 2.238282-7.160156 2.535157-10.53125.765626l-62.414062-32.789063-62.394532 32.824219c-1.460937.769531-3.0625 1.148437-4.652343 1.148437zm-19.988281-130.5625 39.75 38.726563c2.359374 2.296875 3.4375 5.605468 2.878906 8.851562l-9.367188 54.699219 49.117188-25.835937c2.914062-1.53125 6.394531-1.535157 9.308594-.003907l49.128906 25.8125-9.398438-54.695312c-.554687-3.246094.519532-6.554688 2.875-8.851563l39.730469-38.75-54.921875-7.964844c-3.257812-.472656-6.074219-2.519531-7.53125-5.46875l-24.574219-49.761718-24.550781 49.773437c-1.453125 2.949219-4.269531 5-7.527344 5.472657zm0 0"/><path d="m100.582031 391.175781c-2.902343 0-5.78125-1.257812-7.757812-3.683593-23.78125-29.195313-39.691407-64.167969-46.015625-101.136719-.929688-5.445313 2.730468-10.613281 8.171875-11.542969 5.449219-.921875 10.613281 2.726562 11.542969 8.171875 5.742187 33.578125 20.199218 65.347656 41.808593 91.875 3.488281 4.28125 2.84375 10.582031-1.4375 14.066406-1.855469 1.515625-4.089843 2.25-6.3125 2.25zm0 0"/><path d="m53.667969 259.875c-5.503907 0-9.976563-4.449219-10-9.960938v-.75c0-5.523437 4.476562-10 10-10 5.523437 0 10 4.476563 10 10v.667969c.023437 5.523438-4.4375 10.019531-9.960938 10.042969-.011719 0-.027343 0-.039062 0zm0 0"/></svg>