<?xml version="1.0" encoding="iso-8859-1"?>
<!-- Generator: Adobe Illustrator 19.0.0, SVG Export Plug-In . SVG Version: 6.00 Build 0)  -->
<svg version="1.1" id="Capa_1" xmlns="http://www.w3.org/2000/svg" xmlns:xlink="http://www.w3.org/1999/xlink" x="0px" y="0px"
	 viewBox="0 0 512 512" style="enable-background:new 0 0 512 512;" xml:space="preserve">
<path style="fill:#FF403D;" d="M389.516,353.536c-26.96,0-48.893-21.933-48.893-48.893v-86.503c0-4.148-3.374-7.522-7.522-7.522
	c-4.148,0-7.522,3.374-7.522,7.522v41.371c0,14.517-11.811,26.327-26.327,26.327c-14.517,0-26.327-11.811-26.327-26.327V92.145
	c0-13.479-10.967-24.447-24.447-24.447V52.654c21.775,0,39.491,17.716,39.491,39.491V259.51c0,6.221,5.062,11.283,11.283,11.283
	s11.283-5.062,11.283-11.283v-41.371c0-12.443,10.123-22.566,22.566-22.566c12.443,0,22.566,10.123,22.566,22.566v86.503
	c0,18.665,15.184,33.849,33.849,33.849s33.849-15.185,33.849-33.849v-146.68h15.044v146.68
	C438.409,331.603,416.476,353.536,389.516,353.536z"/>
<path style="fill:#DAEDF7;" d="M479.781,87.329v1.814c0,21.391-17.341,38.73-38.73,38.73h-20.325
	c-21.391,0-38.73-17.341-38.73-38.73v-1.814c0-7.686,3.359-14.987,9.194-19.989l0,0c10.875-9.321,17.133-22.929,17.133-37.252l0,0
	c0-12.463,10.104-22.566,22.566-22.566l0,0c12.462,0,22.566,10.104,22.566,22.566l0,0c0,14.323,6.258,27.931,17.133,37.252l0,0
	C476.422,72.342,479.781,79.643,479.781,87.329z"/>
<g>
	<path style="fill:#FFFFFF;" d="M415.843,89.144V87.33c0-7.686,3.359-14.987,9.194-19.989l0,0
		c10.875-9.321,17.133-22.929,17.133-37.252l0,0c0-5.721,2.133-10.941,5.642-14.919c-4.135-4.688-10.183-7.647-16.925-7.647
		c-12.463,0-22.566,10.103-22.566,22.566l0,0c0,14.323-6.258,27.931-17.133,37.252l0,0c-5.835,5.002-9.194,12.303-9.194,19.989
		v1.814c0,21.391,17.341,38.73,38.73,38.73h20.325c2.308,0,4.565-0.214,6.762-0.601C429.648,124.073,415.843,108.226,415.843,89.144
		z"/>
	<circle style="fill:#FFFFFF;" cx="205.221" cy="75.22" r="45.132"/>
</g>
<path style="fill:#DAEDF7;" d="M180.78,75.22c0-21.366,14.851-39.25,34.789-43.928c-3.323-0.779-6.782-1.205-10.342-1.205
	c-24.926,0-45.132,20.206-45.132,45.132s20.206,45.132,45.132,45.132c3.56,0,7.02-0.425,10.342-1.205
	C195.63,114.47,180.78,96.586,180.78,75.22z"/>
<path style="fill:#FEC108;" d="M250.358,75.22c0,24.926-20.206,45.132-45.132,45.132s-45.132-20.206-45.132-45.132"/>
<circle style="fill:#FFFFFF;" cx="86.754" cy="75.22" r="45.132"/>
<path style="fill:#DAEDF7;" d="M62.308,75.22c0-21.366,14.851-39.25,34.789-43.928c-3.323-0.779-6.782-1.205-10.342-1.205
	c-24.926,0-45.132,20.206-45.132,45.132s20.206,45.132,45.132,45.132c3.56,0,7.02-0.425,10.342-1.205
	C77.158,114.47,62.308,96.586,62.308,75.22z"/>
<path style="fill:#FEC108;" d="M131.886,75.22c0,24.926-20.206,45.132-45.132,45.132S41.622,100.146,41.622,75.22"/>
<path style="fill:#03C0E0;" d="M61.367,512V224.72c0-46.216,37.466-83.682,83.682-83.682l0,0c46.216,0,83.682,37.466,83.682,83.682
	V512"/>
<path style="fill:#C3F0F7;" d="M145.05,141.038L145.05,141.038c-3.879,0-7.691,0.286-11.429,0.797
	c40.807,5.576,72.254,40.548,72.254,82.886V512h22.858V224.72C228.732,178.504,191.266,141.038,145.05,141.038z"/>
<rect x="128.125" y="336.606" style="fill:#FFFFFF;" width="101.548" height="154.202"/>
<path style="fill:#68D9EC;" d="M161.504,142.665c-5.322-1.061-10.821-1.627-16.454-1.627l0,0c-46.216,0-83.682,37.466-83.682,83.682
	V512h32.908V224.72C94.276,184.137,123.169,150.31,161.504,142.665z"/>
<g>
	<rect x="60.427" y="338.492" style="fill:#DAEDF7;" width="41.371" height="152.316"/>
	<rect x="205.221" y="338.492" style="fill:#DAEDF7;" width="22.566" height="152.316"/>
</g>
<path d="M475.482,61.629c-9.219-7.901-14.507-19.397-14.507-31.54C460.975,13.498,447.478,0,430.887,0
	c-16.591,0-30.088,13.498-30.088,30.088c0,12.143-5.287,23.638-14.507,31.54c-7.512,6.439-11.82,15.807-11.82,25.7v1.815
	c0,25.504,20.749,46.253,46.253,46.253h2.641v7.522h15.044v-7.522h2.641c25.504,0,46.253-20.749,46.253-46.253v-1.815
	C487.303,77.436,482.995,68.068,475.482,61.629z M472.259,89.144c0,17.208-14,31.208-31.208,31.208h-20.326
	c-17.208,0-31.208-14-31.208-31.208v-1.815c0-5.496,2.394-10.7,6.566-14.278c12.558-10.764,19.761-26.422,19.761-42.963
	c0-8.295,6.749-15.044,15.044-15.044c8.295,0,15.044,6.749,15.044,15.044c0,16.54,7.203,32.199,19.76,42.963
	c4.173,3.577,6.567,8.782,6.567,14.278V89.144z"/>
<rect x="400.794" y="82.742" width="15.044" height="22.566"/>
<rect x="423.36" y="82.742" width="15.044" height="22.566"/>
<rect x="445.926" y="82.742" width="15.044" height="22.566"/>
<rect x="423.36" y="30.088" style="fill:#DADADA;" width="15.044" height="15.044"/>
<rect x="152.567" y="361.058" width="15.044" height="15.044"/>
<g>
	<rect x="152.567" y="451.322" style="fill:#FF403D;" width="15.044" height="15.044"/>
	<rect x="182.655" y="451.322" style="fill:#FF403D;" width="15.044" height="15.044"/>
	<rect x="212.743" y="451.322" style="fill:#FF403D;" width="15.044" height="15.044"/>
	<rect x="62.303" y="451.322" style="fill:#FF403D;" width="15.044" height="15.044"/>
</g>
<g>
	<rect x="190.177" y="300.881" style="fill:#FFFFFF;" width="15.044" height="15.044"/>
	<rect x="160.089" y="300.881" style="fill:#FFFFFF;" width="15.044" height="15.044"/>
	<rect x="130.001" y="300.881" style="fill:#FFFFFF;" width="15.044" height="15.044"/>
</g>
<path d="M205.226,22.566c-26.48,0-48.446,19.651-52.109,45.132h-16.136c-3.662-25.482-25.629-45.132-52.109-45.132
	c-29.034,0-52.654,23.62-52.654,52.654s23.62,52.654,52.654,52.654c14.311,0,27.3-5.747,36.8-15.044h15.854v7.522h15.044v-7.522
	h15.854c9.5,9.297,22.489,15.044,36.8,15.044c29.034,0,52.654-23.62,52.654-52.654S234.26,22.566,205.226,22.566z M205.226,37.61
	c20.739,0,37.61,16.871,37.61,37.61h-22.379l11.19-14.617l-11.946-9.145l-18.19,23.762h-33.895
	C167.616,54.482,184.487,37.61,205.226,37.61z M157.663,97.786h-25.226c2.229-4.678,3.782-9.735,4.545-15.044h16.136
	C153.881,88.052,155.434,93.109,157.663,97.786z M84.874,37.61c20.739,0,37.61,16.871,37.61,37.61H89.522L76.557,49.29
	l-13.455,6.728l9.601,19.202h-25.44C47.263,54.482,64.135,37.61,84.874,37.61z M92.396,112.073v-6.765H77.352v6.765
	c-12.098-2.465-22.096-10.76-26.938-21.809h68.921C114.491,101.314,104.494,109.608,92.396,112.073z M212.748,112.073v-6.765
	h-15.044v6.765c-12.098-2.465-22.096-10.761-26.938-21.809h68.921C234.844,101.314,224.847,109.608,212.748,112.073z"/>
<path d="M145.05,133.516c-19.691,0-37.943,6.273-52.866,16.925H24.697v15.044h51.062c-13.654,15.949-21.914,36.644-21.914,59.237
	V512h15.044v-15.546h38.551V330.97H68.889V224.721c0-41.995,34.165-76.161,76.161-76.161s76.16,34.165,76.16,76.161V330.97h-98.726
	v165.485h98.726V512h15.044V224.721C236.254,174.43,195.34,133.516,145.05,133.516z M92.396,346.014V481.41H68.889v-67.698h8.463
	v-15.044h-8.463v-52.654H92.396z M220.27,398.668h-67.698v15.044h67.698v67.698h-82.742V346.014h82.742V398.668z"/>
<rect x="32.214" y="135.397" style="fill:#FF403D;" width="15.044" height="45.132"/>
<g>
</g>
<g>
</g>
<g>
</g>
<g>
</g>
<g>
</g>
<g>
</g>
<g>
</g>
<g>
</g>
<g>
</g>
<g>
</g>
<g>
</g>
<g>
</g>
<g>
</g>
<g>
</g>
<g>
</g>
</svg>
