<?xml version="1.0" encoding="iso-8859-1"?>
<!-- Generator: Adobe Illustrator 19.0.0, SVG Export Plug-In . SVG Version: 6.00 Build 0)  -->
<svg version="1.1" id="Capa_1" xmlns="http://www.w3.org/2000/svg" xmlns:xlink="http://www.w3.org/1999/xlink" x="0px" y="0px"
	 viewBox="0 0 512 512" style="enable-background:new 0 0 512 512;" xml:space="preserve">
<path style="fill:#FA4138;" d="M25.6,8.533h187.733c9.429,0,17.067,7.637,17.067,17.067v204.8c0,9.429-7.637,17.067-17.067,17.067
	H25.6c-9.429,0-17.067-7.637-17.067-17.067V25.6C8.533,16.171,16.171,8.533,25.6,8.533z"/>
<path style="fill:#FC807A;" d="M93.867,8.533h119.467c9.429,0,17.067,7.637,17.067,17.067v204.8c0,9.429-7.637,17.067-17.067,17.067
	H93.867c-9.429,0-17.067-7.637-17.067-17.067V25.6C76.8,16.171,84.437,8.533,93.867,8.533z"/>
<path style="fill:#FEC007;" d="M315.733,8.533h136.533c28.279,0,51.2,22.921,51.2,51.2V256c0,28.279-22.921,51.2-51.2,51.2H315.733
	c-28.279,0-51.2-22.921-51.2-51.2V59.733C264.533,31.454,287.454,8.533,315.733,8.533z"/>
<path style="fill:#FFFFFF;" d="M315.733,42.667h136.533c9.429,0,17.067,7.637,17.067,17.067v128c0,9.429-7.637,17.067-17.067,17.067
	H315.733c-9.429,0-17.067-7.637-17.067-17.067v-128C298.667,50.304,306.304,42.667,315.733,42.667z"/>
<path style="fill:#3F51B4;" d="M384,238.933L384,238.933c9.429,0,17.067,7.637,17.067,17.067l0,0
	c0,9.429-7.637,17.067-17.067,17.067l0,0c-9.429,0-17.067-7.637-17.067-17.067l0,0C366.933,246.571,374.571,238.933,384,238.933z"/>
<path style="fill:#FC807A;" d="M418.133,409.6c-52.634,0-93.867,22.494-93.867,51.2S365.5,512,418.133,512S512,489.506,512,460.8
	S470.767,409.6,418.133,409.6z"/>
<g>
	<rect x="298.667" y="443.733" style="fill:#FA4138;" width="34.133" height="34.133"/>
	<path style="fill:#FA4138;" d="M384,145.067l-38.4-38.4c-7.066-7.066-7.074-18.526,0-25.6l0,0l0,0c7.066-7.066,18.526-7.074,25.6,0
		l0,0l12.8,12.8l12.8-12.8c7.066-7.066,18.526-7.074,25.6,0l0,0l0,0c7.066,7.066,7.074,18.526,0,25.6l0,0L384,145.067z"/>
</g>
<rect x="102.4" y="204.8" width="17.067" height="17.067"/>
<path d="M477.867,187.733v-128c0-14.14-11.46-25.6-25.6-25.6H315.733c-14.14,0-25.6,11.46-25.6,25.6v128
	c0,14.14,11.46,25.6,25.6,25.6h136.533C466.406,213.333,477.867,201.873,477.867,187.733z M307.2,187.733v-128
	c0-4.71,3.823-8.533,8.533-8.533h136.533c4.71,0,8.533,3.823,8.533,8.533v128c0,4.71-3.823,8.533-8.533,8.533H315.733
	C311.023,196.267,307.2,192.444,307.2,187.733z"/>
<path d="M384,230.4c-14.14,0-25.6,11.46-25.6,25.6c0,14.14,11.46,25.6,25.6,25.6c14.14,0,25.6-11.46,25.6-25.6
	C409.6,241.86,398.14,230.4,384,230.4z M384,264.533c-4.71,0-8.533-3.823-8.533-8.533c0-4.71,3.823-8.533,8.533-8.533
	s8.533,3.823,8.533,8.533C392.533,260.71,388.71,264.533,384,264.533z"/>
<rect x="102.4" y="170.667" width="17.067" height="17.067"/>
<rect x="102.4" y="136.533" width="17.067" height="17.067"/>
<rect x="102.4" y="102.4" width="17.067" height="17.067"/>
<rect x="102.4" y="68.267" width="17.067" height="17.067"/>
<rect x="102.4" y="34.133" width="17.067" height="17.067"/>
<path d="M145.067,366.933h221.867c14.14,0,25.6-11.46,25.6-25.6v-25.6h59.733C485.239,315.699,511.966,288.973,512,256V59.733
	C511.966,26.761,485.239,0.034,452.267,0H315.733C282.761,0.034,256.034,26.761,256,59.733V256
	c0.034,32.973,26.761,59.699,59.733,59.733h59.733v25.6c0,4.71-3.823,8.533-8.533,8.533H145.067c-4.71,0-8.533-3.823-8.533-8.533
	V256h76.8c14.14,0,25.6-11.46,25.6-25.6l0,0V25.6c0-14.14-11.46-25.6-25.6-25.6H25.6C11.46,0,0,11.46,0,25.6v204.8
	C0,244.54,11.46,256,25.6,256l0,0h59.733v85.333c0,4.71-3.823,8.533-8.533,8.533H25.6c-14.14,0-25.6,11.46-25.6,25.6
	c0,14.14,11.46,25.6,25.6,25.6h179.2c4.71,0,8.533,3.823,8.533,8.533c0,4.71-3.823,8.533-8.533,8.533H25.6
	c-14.14,0-25.6,11.46-25.6,25.6c0,14.14,11.46,25.6,25.6,25.6h264.533V486.4h46.413c16.009,15.36,46.191,25.6,81.587,25.6
	C470.767,512,512,489.506,512,460.8s-41.233-51.2-93.867-51.2c-35.405,0-65.579,10.24-81.587,25.6h-46.413v17.067H25.6
	c-4.71,0-8.533-3.823-8.533-8.533c0-4.71,3.823-8.533,8.533-8.533h179.2c14.14,0,25.6-11.46,25.6-25.6c0-14.14-11.46-25.6-25.6-25.6
	H25.6c-4.71,0-8.533-3.823-8.533-8.533c0-4.71,3.823-8.533,8.533-8.533h51.2c14.14,0,25.6-11.46,25.6-25.6V256h17.067v85.333
	C119.467,355.473,130.927,366.933,145.067,366.933z M273.067,256V59.733c0.026-23.552,19.115-42.641,42.667-42.667h136.533
	c23.552,0.026,42.641,19.115,42.667,42.667V256c-0.026,23.552-19.115,42.641-42.667,42.667H315.733
	C292.181,298.641,273.092,279.552,273.067,256z M418.133,426.667c45.227,0,76.8,17.988,76.8,34.133s-31.573,34.133-76.8,34.133
	s-76.8-17.988-76.8-34.133S372.907,426.667,418.133,426.667z M307.2,452.267h17.067v17.067H307.2V452.267z M213.333,17.067
	c4.71,0,8.533,3.823,8.533,8.533v204.8c0,4.71-3.823,8.533-8.533,8.533H93.867c-4.71,0-8.533-3.823-8.533-8.533V25.6
	c0-4.71,3.823-8.533,8.533-8.533H213.333z M17.067,230.4V25.6c0-4.71,3.823-8.533,8.533-8.533h44.237
	c-1.007,2.731-1.545,5.623-1.57,8.533v204.8c0.026,2.91,0.563,5.803,1.57,8.533H25.6C20.89,238.933,17.067,235.11,17.067,230.4z"/>
<path d="M436.233,93.867c0-14.711-11.921-26.633-26.633-26.633c-7.066,0-13.841,2.807-18.833,7.799L384,81.801l-6.767-6.767
	c-10.402-10.402-27.264-10.402-37.666,0c-10.402,10.402-10.402,27.264,0,37.666L384,157.133l44.433-44.433
	C433.442,107.716,436.25,100.932,436.233,93.867z M416.367,100.634L384,133.001l-32.367-32.367c-3.738-3.738-3.738-9.796,0-13.534
	c3.738-3.738,9.796-3.738,13.534,0l0,0L384,105.933L402.833,87.1c3.738-3.738,9.796-3.738,13.534,0
	C420.105,90.837,420.105,96.896,416.367,100.634L416.367,100.634z"/>
<rect x="324.267" y="162.133" width="34.133" height="17.067"/>
<rect x="409.6" y="162.133" width="34.133" height="17.067"/>
<g>
</g>
<g>
</g>
<g>
</g>
<g>
</g>
<g>
</g>
<g>
</g>
<g>
</g>
<g>
</g>
<g>
</g>
<g>
</g>
<g>
</g>
<g>
</g>
<g>
</g>
<g>
</g>
<g>
</g>
</svg>
