<?xml version="1.0" encoding="iso-8859-1"?>
<!-- Generator: Adobe Illustrator 19.0.0, SVG Export Plug-In . SVG Version: 6.00 Build 0)  -->
<svg version="1.1" id="Capa_1" xmlns="http://www.w3.org/2000/svg" xmlns:xlink="http://www.w3.org/1999/xlink" x="0px" y="0px"
	 viewBox="0 0 512 512" style="enable-background:new 0 0 512 512;" xml:space="preserve">
<g>
	<path style="fill:#FFCB5A;" d="M281.289,162.048l2.611-14.805l8.781-2.509l-4.693-16.401l-119.467,34.133
		c-4.13,1.186-6.733,5.248-6.084,9.498l16.41,106.667l-14.012,14.012l12.066,12.066l17.067-17.067
		c1.391-1.399,2.253-3.226,2.441-5.188l0,0l7.962-79.65l77.884-23.33l2.133-0.683l-3.908-12.194L281.289,162.048z"/>
	<path style="fill:#FFCB5A;" d="M245.551,352.546l5.359-6.69l-28.843-21.589l-0.512-0.341l-4.608,7.168l-6.827-5.12l-8.875,13.943
		L87.881,307.533c-3.302-0.947-6.852,0.188-9.003,2.867l-34.133,42.667l13.329,10.667l17.715-22.187l-2.202-0.93l3.413-7.817
		l4.267,1.877l-5.521,6.903l134.374,58.769c3.533,1.553,7.671,0.529,10.086-2.483l32.171-40.209L245.551,352.546z"/>
	<polygon style="fill:#FFCB5A;" points="80.422,324.983 73.579,340.617 75.78,341.581 86.822,327.782 	"/>
</g>
<path d="M252.369,357.658l1.314-1.638L252.369,357.658z"/>
<polygon points="219.166,311.424 210.103,325.965 210.103,325.965 219.294,311.518 "/>
<polygon style="fill:#00448F;" points="309.218,259.268 306.283,262.938 264.734,256 260.015,263.424 250.91,261.828 
	219.294,311.518 210.103,325.965 223.791,336.23 238.707,347.409 252.369,357.658 253.683,356.019 321.105,271.761 322.65,269.798 
	"/>
<g>
	<polygon style="fill:#FFCB5A;" points="401.489,505.421 418.112,501.513 416.559,494.933 399.023,494.933 	"/>
	<path style="fill:#FFCB5A;" d="M416.559,494.933L416.559,494.933l-32.58-138.487c-0.239-0.99-0.649-1.929-1.212-2.782
		L370.18,334.78l-6.827,5.12l-4.753-7.1l-31.403,23.552l5.12,6.827l-6.827,5.12l8.388,11.179l42.223,126.686
		c1.161,3.49,4.42,5.837,8.098,5.837h51.2v-17.067H416.559z"/>
</g>
<polygon style="fill:#00448F;" points="360.691,320.563 314.492,251.247 300.301,260.753 308.8,273.485 285.129,303.019 
	287.646,305.041 283.507,312.32 315.243,354.645 325.491,368.299 339.136,358.059 356.501,345.037 370.172,334.78 "/>
<path style="fill:#FFCB5A;" d="M341.534,51.2v-8.533h-51.2V51.2h-8.533v8.533c0,18.85,15.283,34.133,34.133,34.133
	s34.133-15.283,34.133-34.133V51.2H341.534z"/>
<path style="fill:#454545;" d="M341.534,0h-25.6c-18.85,0-34.133,15.283-34.133,34.133V51.2h68.267V8.533
	C350.067,3.823,346.244,0,341.534,0z"/>
<g>
	<rect x="145.301" y="17.067" style="fill:#5B5B5B;" width="68.267" height="17.067"/>
	<rect x="111.168" y="17.067" style="fill:#5B5B5B;" width="17.067" height="17.067"/>
	<rect x="264.768" y="426.667" style="fill:#5B5B5B;" width="68.267" height="17.067"/>
	<rect x="230.635" y="426.667" style="fill:#5B5B5B;" width="17.067" height="17.067"/>
	<rect x="59.968" y="136.533" style="fill:#5B5B5B;" width="34.133" height="17.067"/>
	<rect x="25.835" y="136.533" style="fill:#5B5B5B;" width="17.067" height="17.067"/>
	<rect x="128.235" y="247.467" style="fill:#5B5B5B;" width="25.6" height="17.067"/>
	<rect x="409.835" y="119.467" style="fill:#5B5B5B;" width="34.133" height="17.067"/>
</g>
<path style="fill:#62BEFF;" d="M331.234,218.615l1.766-5.282l2.304-2.56l-53.504-48.64l-0.512-0.085l-1.621,9.301v0.222
	l-7.509-6.878l-14.362,81.493l-6.886,15.642l18.202,3.183l45.457,7.945c0.444,0.077,0.905,0.111,1.365,0.111
	c3.678,0,6.938-2.347,8.098-5.837l14.089-42.342L331.234,218.615z"/>
<polygon points="272.158,164.651 272.158,164.651 272.158,164.642 "/>
<path style="fill:#FFCB5A;" d="M469.961,142.37l-7.262,21.683l-84.233,30.635l-29.013-36.267l-8.09-40.661
	c-0.674-3.371-3.311-6.007-6.682-6.69l-25.523-5.12c-13.935-2.756-27.469,6.298-30.225,20.233c-0.026,0.137-0.051,0.273-0.077,0.41
	l-6.699,38.025l0,0l14.925,13.815l37.257,33.869l13.781,12.587l31.778,28.894c3.132,2.842,7.868,2.97,11.145,0.29l93.867-76.8
	c1.212-1.041,2.099-2.406,2.56-3.942h0.119l8.533-25.6L469.961,142.37z"/>
<path d="M477.513,173.329h0.119l8.533-25.6l-16.213-5.393l-7.245,21.717l-84.233,30.635l-29.013-36.267l-8.098-40.661
	c-0.674-3.379-3.311-6.016-6.69-6.69l-25.54-5.12c-13.867-2.773-27.349,6.212-30.123,20.079c-0.034,0.188-0.077,0.384-0.111,0.572
	l-0.802,4.514l-109.577,31.351c-4.13,1.186-6.733,5.248-6.084,9.498l16.41,106.667l-14.012,14.012l12.066,12.066l17.067-17.067
	c1.391-1.399,2.253-3.226,2.441-5.188l0,0l7.962-79.65l64.503-19.337l-12.245,69.385l-55.407,87.04l-113.34-32.358
	c-3.311-0.947-6.861,0.179-9.011,2.867l-34.133,42.667l13.329,10.667l17.715-22.187l134.34,58.803
	c3.533,1.553,7.671,0.529,10.086-2.483l65.792-82.244l47.855,63.855l42.223,126.686c1.161,3.499,4.437,5.845,8.124,5.837h51.2
	v-17.067h-18.842l-32.58-138.487c-0.239-0.99-0.649-1.929-1.212-2.782l-58.368-87.543l13.722-41.233l31.778,28.894
	c3.132,2.842,7.868,2.97,11.145,0.29l93.867-76.8C476.13,176.239,477.035,174.865,477.513,173.329z M287.083,178.449l37.257,33.869
	l-13.875,41.626l-1.212,0.853l-34.62-5.794L287.083,178.449z M194.018,188.092c-3.311,0.99-5.7,3.883-6.042,7.322l-1.843,18.389
	l-5.683-37.001l94.353-26.957l-2.611,14.797L194.018,188.092z M210.974,382.089L86.822,327.782l1.826-2.278l114.005,32.563
	c3.635,1.041,7.518-0.427,9.549-3.618l11.571-18.236l14.908,11.179L210.974,382.089z M249.374,334.08l-16.393-12.288l35.925-56.448
	l31.283,5.214L249.374,334.08z M367.714,361.856l31.309,133.077h-8.67L349.632,372.77c-0.29-0.87-0.725-1.69-1.271-2.423
	l-9.216-12.288l17.357-13.022L367.714,361.856z M347.021,330.82l-18.116,13.585l-31.744-42.325l-0.853,0.632l17.442-21.794
	L347.021,330.82z M375.957,236.203l-85.333-77.611l5.12-29.013c0.819-4.642,5.248-7.74,9.89-6.912
	c0.06,0.009,0.128,0.026,0.188,0.034l19.968,3.994l7.424,37.086c0.265,1.34,0.853,2.594,1.707,3.661l34.133,42.667
	c2.287,2.859,6.144,3.942,9.583,2.688l46.711-16.99L375.957,236.203z"/>
<path d="M315.934,93.867c18.85,0,34.133-15.283,34.133-34.133v-51.2c0-4.71-3.823-8.533-8.533-8.533h-25.6
	c-18.85,0-34.133,15.283-34.133,34.133v25.6C281.801,78.583,297.075,93.867,315.934,93.867z M315.934,17.067h17.067v17.067h-34.133
	C298.867,24.704,306.505,17.067,315.934,17.067z M298.867,51.2h34.133v8.533c0,9.429-7.637,17.067-17.067,17.067
	s-17.067-7.637-17.067-17.067V51.2z"/>
<rect x="145.301" y="17.067" width="68.267" height="17.067"/>
<rect x="111.168" y="17.067" width="17.067" height="17.067"/>
<rect x="264.768" y="426.667" width="68.267" height="17.067"/>
<rect x="230.635" y="426.667" width="17.067" height="17.067"/>
<rect x="59.968" y="136.533" width="34.133" height="17.067"/>
<rect x="25.835" y="136.533" width="17.067" height="17.067"/>
<rect x="128.235" y="247.467" width="25.6" height="17.067"/>
<rect x="409.835" y="119.467" width="34.133" height="17.067"/>
<g>
</g>
<g>
</g>
<g>
</g>
<g>
</g>
<g>
</g>
<g>
</g>
<g>
</g>
<g>
</g>
<g>
</g>
<g>
</g>
<g>
</g>
<g>
</g>
<g>
</g>
<g>
</g>
<g>
</g>
</svg>
