<?xml version="1.0" encoding="iso-8859-1"?>
<!-- Generator: Adobe Illustrator 19.0.0, SVG Export Plug-In . SVG Version: 6.00 Build 0)  -->
<svg version="1.1" id="Capa_1" xmlns="http://www.w3.org/2000/svg" xmlns:xlink="http://www.w3.org/1999/xlink" x="0px" y="0px"
	 viewBox="0 0 512 512" style="enable-background:new 0 0 512 512;" xml:space="preserve">
<circle style="fill:#29ABE2;" cx="276.18" cy="272.225" r="76.796"/>
<path style="fill:#CCCCCC;" d="M336.764,469.335v34.132H46.645V119.486h34.132"/>
<path style="fill:#E6E6E6;" d="M370.896,418.138v42.665H80.777V76.822h34.132"/>
<path style="fill:#F2F2F2;" d="M413.56,384.006V137.525L284.594,8.558H114.908v409.58h290.119"/>
<path style="fill:#E6E6E6;" d="M284.594,8.558v128.966H413.56L284.594,8.558z"/>
<circle style="fill:#29ABE2;" cx="276.607" cy="272.652" r="77.223"/>
<path style="fill:#754C24;" d="M341.457,352.503l96.422,96.422c2.944,2.944,6.929,4.599,11.093,4.608
	c8.695,0.026,15.76-7.005,15.786-15.701c0-0.009,0-0.009,0-0.017c-0.009-4.164-1.664-8.149-4.608-11.093L363.728,330.3
	L341.457,352.503z"/>
<path style="fill:#808080;" d="M276.18,162.151c-60.788,0-110.075,49.286-110.075,110.074S215.392,382.3,276.18,382.3
	s110.074-49.286,110.074-110.074C386.169,211.471,336.935,162.236,276.18,162.151L276.18,162.151z M276.18,349.021
	c-42.417,0-76.796-34.379-76.796-76.796s34.379-76.796,76.796-76.796s76.796,34.379,76.796,76.796
	C352.908,314.608,318.572,348.953,276.18,349.021z"/>
<path d="M234.369,247.48h85.329v17.066h-85.329V247.48z"/>
<path d="M234.369,281.611h51.197v17.066h-51.197V281.611z"/>
<path d="M466.182,420.698l-44.09-44.132V137.516c0-0.188-0.094-0.35-0.111-0.538c-0.043-0.742-0.188-1.476-0.435-2.184
	c-0.085-0.273-0.188-0.538-0.307-0.802c-0.418-0.93-0.99-1.775-1.707-2.5L290.626,2.526c-0.734-0.725-1.604-1.306-2.56-1.707
	c-0.239-0.102-0.486-0.188-0.734-0.265c-0.742-0.265-1.527-0.418-2.312-0.461c-0.162,0-0.307-0.094-0.469-0.094H114.908
	c-4.71,0-8.533,3.823-8.533,8.533v59.73H80.777c-4.71,0-8.533,3.823-8.533,8.533v34.132H46.645c-4.71,0-8.533,3.823-8.533,8.533
	v384.006c0,4.71,3.823,8.533,8.533,8.533h290.119c4.71,0,8.533-3.823,8.533-8.533v-34.132h25.599c4.71,0,8.533-3.823,8.533-8.533
	v-34.132h24.131l28.295,28.295c9.13,9.813,24.481,10.367,34.294,1.246c9.813-9.122,10.367-24.481,1.246-34.294
	C467.01,421.491,466.601,421.09,466.182,420.698L466.182,420.698z M293.127,29.157l49.917,49.918l49.917,49.909h-99.835
	L293.127,29.157z M328.231,494.934H55.178V128.019h17.066v332.783c0,4.71,3.823,8.533,8.533,8.533h247.454V494.934z M362.363,452.27
	H89.31V85.355h17.066v332.783c0,4.71,3.823,8.533,8.533,8.533h247.454V452.27z M123.441,409.605V17.091h152.62v120.425
	c0,4.71,3.823,8.533,8.533,8.533h120.433V359.5l-33.125-33.125c30.087-53.032,11.494-120.425-41.547-150.512
	s-120.425-11.494-150.512,41.547S168.35,337.835,221.39,367.922c37.067,21.025,82.914,18.849,117.822-5.598l47.281,47.281H123.441z
	 M276.18,365.234c-51.368,0-93.009-41.641-93.009-93.009s41.641-93.009,93.009-93.009s93.009,41.641,93.009,93.009
	C369.129,323.568,327.523,365.174,276.18,365.234z M449.023,445.017c-1.92,0.017-3.772-0.751-5.12-2.116l-90.381-90.398
	l10.188-10.188l41.316,41.316v0.375h0.375l48.714,48.714c2.816,2.807,2.816,7.372,0,10.188c-1.357,1.357-3.2,2.116-5.12,2.108
	L449.023,445.017z"/>
<path d="M276.18,191.163c-44.772,0-81.063,36.29-81.063,81.063s36.29,81.063,81.063,81.063c44.772,0,81.063-36.29,81.063-81.063
	C357.192,227.479,320.927,191.214,276.18,191.163z M276.18,336.222c-35.343,0-63.997-28.654-63.997-63.997
	s28.654-63.997,63.997-63.997s63.997,28.654,63.997,63.997C340.143,307.552,311.515,336.188,276.18,336.222z"/>
<g>
</g>
<g>
</g>
<g>
</g>
<g>
</g>
<g>
</g>
<g>
</g>
<g>
</g>
<g>
</g>
<g>
</g>
<g>
</g>
<g>
</g>
<g>
</g>
<g>
</g>
<g>
</g>
<g>
</g>
</svg>
