<?xml version="1.0" encoding="iso-8859-1"?>
<!-- Generator: Adobe Illustrator 19.0.0, SVG Export Plug-In . SVG Version: 6.00 Build 0)  -->
<svg version="1.1" id="Capa_1" xmlns="http://www.w3.org/2000/svg" xmlns:xlink="http://www.w3.org/1999/xlink" x="0px" y="0px"
	 viewBox="0 0 512 512" style="enable-background:new 0 0 512 512;" xml:space="preserve">
<path style="fill:#EE3C32;" d="M501.546,89.483C506.453,47.092,472.097,10,427.924,10H84.076C39.903,10,5.547,47.092,10.454,89.483
	L22.438,193h467.124L501.546,89.483z"/>
<g>
	<path style="fill:#E6E6E6;" d="M22.438,193l28.41,245.411C55.039,474.619,86.74,502,124.469,502h263.063
		c37.728,0,69.43-27.381,73.621-63.589L489.562,193H22.438z"/>
	<path style="fill:#E6E6E6;" d="M364.733,152h-214.36V66l29.603-6.272c49.907-12.294,102.189-12.474,152.185-0.524L364.733,66V152z"
		/>
</g>
<path d="M491.554,28.236C475.566,10.292,452.375,0,427.924,0H84.076c-24.451,0-47.642,10.292-63.63,28.236
	C5.176,45.374-2.086,68.117,0.521,90.633l40.393,348.928C45.694,480.858,81.615,512,124.469,512h263.063
	c42.854,0,78.775-31.142,83.555-72.438L511.48,90.634C514.086,68.117,506.824,45.374,491.554,28.236z M453.564,417H295.472
	c-5.52,0-10.001,4.49-10.001,10s4.481,10,10.001,10h155.777l-0.03,0.262C447.606,468.468,420.226,492,387.531,492H124.469
	c-32.695,0-60.074-23.532-63.687-54.738L60.751,437h154.716c5.51,0,10.001-4.49,10.001-10s-4.49-10-10.001-10H58.436L33.663,203
	h444.674L453.564,417z M491.611,88.333L480.652,183H31.348L20.389,88.333c-1.98-17.103,3.344-33.721,14.99-46.793
	C47.576,27.851,65.325,20,84.076,20h343.848c18.751,0,36.5,7.851,48.697,21.541C488.267,54.612,493.591,71.23,491.611,88.333z"/>
<path d="M255.47,437c5.51,0,10.001-4.49,10.001-10s-4.49-10-10.001-10c-5.52,0-10.001,4.49-10.001,10S249.95,437,255.47,437z"/>
<path d="M108.951,40H94.453c-26.071,0-47.281,20.636-47.281,46v14c0,5.523,4.478,10,10.001,10s10.001-4.477,10.001-10V86
	c0-14.336,12.238-26,27.28-26h14.498c5.523,0,10.001-4.477,10.001-10S114.474,40,108.951,40z"/>
<path d="M420.653,40h-14.498c-5.523,0-10.001,4.477-10.001,10s4.478,10,10.001,10h14.498c15.042,0,27.28,11.664,27.28,26v14
	c0,5.523,4.478,10,10.001,10s10.001-4.477,10.001-10V86C467.934,60.636,446.724,40,420.653,40z"/>
<path d="M366.775,56.211l-32.43-6.766c-51.274-12.232-105.416-12.047-156.6,0.534L148.3,56.217
	c-4.621,0.979-7.927,5.059-7.927,9.783v86c0,5.523,4.478,10,10.001,10h214.36c5.523,0,10.001-4.477,10.001-10V66
	C374.734,61.264,371.412,57.178,366.775,56.211z M354.733,142h-82.21l3.192-8.476c1.946-5.168-0.666-10.936-5.834-12.882
	c-5.173-1.947-10.938,0.666-12.883,5.834L251.151,142h-90.777V74.103c0,0,21.888-4.639,21.993-4.666
	c48.196-11.872,99.189-12.048,147.469-0.507c0.094,0.022,24.897,5.198,24.897,5.198V142z"/>
<circle cx="195" cy="97" r="10"/>
<circle cx="315" cy="97" r="10"/>
<circle cx="275" cy="92" r="10"/>
<circle cx="235" cy="92" r="10"/>
<g>
</g>
<g>
</g>
<g>
</g>
<g>
</g>
<g>
</g>
<g>
</g>
<g>
</g>
<g>
</g>
<g>
</g>
<g>
</g>
<g>
</g>
<g>
</g>
<g>
</g>
<g>
</g>
<g>
</g>
</svg>
