<svg xmlns="http://www.w3.org/2000/svg" height="611pt" version="1.1" viewBox="-15 0 611 611.10224" width="611pt">
<g id="surface1">
<path d="M 290.976562 123.027344 C 190.195312 123.027344 108.503906 204.71875 108.503906 305.5 C 108.503906 406.28125 190.203125 487.972656 290.976562 487.972656 C 391.75 487.972656 473.449219 406.28125 473.449219 305.5 C 473.339844 204.769531 391.707031 123.144531 290.976562 123.027344 Z M 290.976562 148.554688 C 293.824219 148.554688 296.136719 150.867188 296.136719 153.714844 C 296.136719 156.5625 293.824219 158.875 290.976562 158.875 C 210.019531 158.949219 144.398438 224.542969 144.28125 305.5 C 144.28125 308.347656 141.96875 310.660156 139.121094 310.660156 C 136.273438 310.660156 133.960938 308.347656 133.960938 305.5 C 134.035156 218.8125 204.289062 148.558594 290.976562 148.484375 Z M 290.976562 148.554688 " style=" stroke:none;fill-rule:nonzero;fill:rgb(100%,74.117647%,10.196078%);fill-opacity:1;" />
<path d="M 516.179688 304.882812 L 566.199219 216.050781 L 475.859375 176.765625 C 474.1875 176.019531 473.035156 174.453125 472.832031 172.636719 L 460.996094 71.558594 L 364.667969 92.613281 C 362.886719 93.007812 361.027344 92.4375 359.78125 91.101562 L 290.976562 16.515625 L 225.609375 90 C 224.390625 91.382812 222.535156 92.007812 220.722656 91.652344 L 121.09375 71.558594 L 111.390625 169.402344 C 111.207031 171.226562 110.082031 172.816406 108.433594 173.601562 L 15.75 216.054688 L 65.429688 300.960938 C 66.351562 302.558594 66.351562 304.523438 65.429688 306.121094 L 15.75 394.949219 L 105.820312 434.445312 C 107.492188 435.1875 108.640625 436.753906 108.847656 438.570312 L 120.957031 539.441406 L 217.285156 518.386719 C 219.066406 518.007812 220.917969 518.582031 222.171875 519.902344 L 290.976562 594.488281 L 356.34375 521.003906 C 357.566406 519.632812 359.425781 519.007812 361.226562 519.351562 L 460.859375 539.441406 L 470.5625 441.597656 C 470.734375 439.777344 471.855469 438.179688 473.519531 437.402344 L 566.199219 394.949219 L 516.246094 310.042969 C 515.304688 308.460938 515.285156 306.492188 516.179688 304.882812 Z M 483.632812 305.5 C 483.632812 411.902344 397.378906 498.15625 290.976562 498.15625 C 184.574219 498.15625 98.320312 411.902344 98.320312 305.5 C 98.320312 199.101562 184.574219 112.84375 290.976562 112.84375 C 397.300781 113.035156 483.449219 199.183594 483.632812 305.5 Z M 483.632812 305.5 " style=" stroke:none;fill-rule:nonzero;fill:rgb(100%,74.117647%,10.196078%);fill-opacity:1;" />
<path d="M 290.976562 109.265625 C 182.597656 109.265625 94.742188 197.125 94.742188 305.5 C 94.742188 413.878906 182.597656 501.738281 290.976562 501.738281 C 399.351562 501.738281 487.210938 413.878906 487.210938 305.5 C 487.101562 197.171875 399.3125 109.382812 290.976562 109.265625 Z M 290.976562 484.398438 C 192.175781 484.398438 112.078125 404.300781 112.078125 305.5 C 112.078125 206.703125 192.175781 126.605469 290.976562 126.605469 C 389.773438 126.605469 469.871094 206.703125 469.871094 305.5 C 469.6875 404.222656 389.699219 484.210938 290.976562 484.398438 Z M 290.976562 484.398438 " style=" stroke:none;fill-rule:nonzero;fill:rgb(25.098039%,18.823529%,2.745098%);fill-opacity:1;" />
<path d="M 530.628906 307.359375 L 580.789062 217.910156 C 583.121094 213.777344 581.652344 208.527344 577.519531 206.191406 C 577.265625 206.046875 576.996094 205.917969 576.726562 205.800781 L 485.902344 166.03125 L 474 64.679688 C 473.464844 59.960938 469.203125 56.566406 464.484375 57.105469 C 464.1875 57.136719 463.898438 57.1875 463.609375 57.25 L 366.664062 78.441406 L 297.304688 2.753906 C 295.667969 0.964844 293.34375 -0.0390625 290.90625 0 C 288.484375 0.0273438 286.1875 1.082031 284.578125 2.890625 L 218.660156 76.996094 L 118.203125 56.902344 C 113.546875 55.976562 109.019531 59.003906 108.089844 63.660156 C 108.019531 63.996094 107.980469 64.335938 107.953125 64.679688 L 98.320312 163.140625 L 5.085938 205.9375 C 0.765625 207.90625 -1.148438 213.003906 0.828125 217.332031 C 0.949219 217.601562 1.089844 217.863281 1.234375 218.117188 L 51.324219 303.644531 L 1.164062 393.089844 C -1.167969 397.226562 0.296875 402.476562 4.433594 404.808594 C 4.6875 404.953125 4.957031 405.085938 5.222656 405.203125 L 96.046875 444.972656 L 107.949219 546.324219 C 108.488281 551.042969 112.746094 554.4375 117.464844 553.898438 C 117.761719 553.863281 118.050781 553.816406 118.339844 553.753906 L 215.289062 532.5625 L 284.644531 608.246094 C 286.273438 610.007812 288.574219 611.007812 290.972656 611 C 293.394531 610.972656 295.695312 609.921875 297.304688 608.109375 L 363.21875 534.074219 L 463.675781 554.167969 C 468.328125 555.128906 472.875 552.136719 473.839844 547.484375 C 473.914062 547.101562 473.96875 546.714844 473.996094 546.324219 L 483.628906 447.863281 L 576.722656 405.0625 C 581.046875 403.097656 582.957031 397.996094 580.984375 393.667969 C 580.859375 393.402344 580.722656 393.140625 580.578125 392.882812 Z M 472.140625 434.304688 C 469.398438 435.570312 467.519531 438.179688 467.1875 441.1875 L 457.832031 535.3125 L 361.503906 516.117188 C 358.507812 515.519531 355.425781 516.542969 353.382812 518.800781 L 290.976562 589.535156 L 224.507812 517.5625 C 222.878906 515.800781 220.582031 514.804688 218.179688 514.808594 L 216.320312 514.808594 L 123.914062 535.175781 L 112.5625 437.953125 C 112.203125 434.917969 110.269531 432.296875 107.46875 431.074219 L 20.84375 393.160156 L 69.007812 307.773438 C 70.511719 305.128906 70.511719 301.882812 69.007812 299.242188 L 20.910156 217.636719 L 109.878906 176.765625 C 112.621094 175.5 114.5 172.890625 114.832031 169.882812 L 124.121094 75.6875 L 220.449219 94.886719 C 223.332031 95.378906 226.261719 94.371094 228.222656 92.203125 L 290.976562 21.46875 L 357.371094 93.441406 C 359.457031 95.683594 362.574219 96.652344 365.558594 95.984375 L 457.96875 75.757812 L 469.390625 172.980469 C 469.746094 176.015625 471.679688 178.636719 474.480469 179.859375 L 561.105469 217.839844 L 512.941406 303.230469 C 511.4375 305.871094 511.4375 309.121094 512.941406 311.761719 L 560.695312 393.367188 Z M 472.140625 434.304688 " style=" stroke:none;fill-rule:nonzero;fill:rgb(25.098039%,18.823529%,2.745098%);fill-opacity:1;" />
<path d="M 290.976562 145.046875 C 202.394531 145.121094 130.601562 216.914062 130.519531 305.5 C 130.519531 310.25 134.371094 314.101562 139.121094 314.101562 C 143.867188 314.101562 147.71875 310.25 147.71875 305.5 C 147.796875 226.414062 211.890625 162.320312 290.976562 162.246094 C 295.722656 162.246094 299.574219 158.394531 299.574219 153.648438 C 299.578125 148.898438 295.730469 145.046875 290.976562 145.046875 Z M 290.976562 145.046875 " style=" stroke:none;fill-rule:nonzero;fill:rgb(25.098039%,18.823529%,2.745098%);fill-opacity:1;" />
</g>
</svg>