<?xml version="1.0" encoding="iso-8859-1"?>
<!-- Generator: Adobe Illustrator 19.0.0, SVG Export Plug-In . SVG Version: 6.00 Build 0)  -->
<svg version="1.1" id="Capa_1" xmlns="http://www.w3.org/2000/svg" xmlns:xlink="http://www.w3.org/1999/xlink" x="0px" y="0px"
	 viewBox="0 0 512 512" style="enable-background:new 0 0 512 512;" xml:space="preserve">
<path style="fill:#7CD9F2;" d="M400,152c-12.065,0-24.082,1.967-35.477,5.76C366.835,148.069,368,138.113,368,128
	C368,57.42,310.579,0,240,0c-68.223,0-124.151,53.652-127.81,120.978C48.714,128.815,0,183.252,0,248c0,70.58,57.421,128,128,128
	h272c61.757,0,112-50.243,112-112S461.757,152,400,152z"/>
<path style="fill:#3CBDE8;" d="M408,360H136C65.421,360,8,302.58,8,232c0-17.232,3.451-33.733,9.712-48.82
	C6.453,202.258,0,224.445,0,248c0,70.58,57.421,128,128,128h272c46.993,0,87.313-29.095,103.908-70.214
	C484.274,338.251,448.63,360,408,360z"/>
<path style="fill:#ECEEF1;" d="M381.657,274.343l-64-64c-1.501-1.5-3.535-2.343-5.657-2.343H136c-4.418,0-8,3.582-8,8v288
	c0,4.418,3.582,8,8,8h240c4.418,0,8-3.582,8-8V280C384,277.878,383.157,275.843,381.657,274.343z"/>
<g>
	<path style="fill:#D9DDE2;" d="M144,504V216c0-4.418,3.582-8,8-8h-16c-4.418,0-8,3.582-8,8v288c0,4.418,3.582,8,8,8h16
		C147.582,512,144,508.418,144,504z"/>
	<path style="fill:#D9DDE2;" d="M317.657,210.343c-1.501-1.5-3.535-2.343-5.657-2.343v64c0,4.418,3.582,8,8,8h64
		c0-2.122-0.843-4.157-2.343-5.657L317.657,210.343z"/>
</g>
<path style="fill:#FF8C78;" d="M317.657,146.343l-56-56c-3.125-3.124-8.189-3.124-11.314,0l-56,56
	C189.404,151.282,193.038,160,200,160h16v176c0,4.418,3.582,8,8,8h64c4.418,0,8-3.582,8-8V160h16
	C318.962,160,322.596,151.282,317.657,146.343z"/>
<g>
	<path style="fill:#DB6B5E;" d="M231.937,336V160H216v176c0,4.418,3.582,8,8,8h15.937C235.519,344,231.937,340.418,231.937,336z"/>
	<path style="fill:#DB6B5E;" d="M210.28,146.343l53.689-53.689l-2.311-2.311c-3.125-3.124-8.189-3.124-11.314,0l-56,56
		C189.404,151.282,193.038,160,200,160h15.937C208.975,160,205.341,151.282,210.28,146.343z"/>
	<path style="fill:#DB6B5E;" d="M296,384h-80c-4.418,0-8-3.582-8-8s3.582-8,8-8h80c4.418,0,8,3.582,8,8S300.418,384,296,384z"/>
	<path style="fill:#DB6B5E;" d="M296,416h-80c-4.418,0-8-3.582-8-8s3.582-8,8-8h80c4.418,0,8,3.582,8,8S300.418,416,296,416z"/>
	<path style="fill:#DB6B5E;" d="M296,448h-80c-4.418,0-8-3.582-8-8s3.582-8,8-8h80c4.418,0,8,3.582,8,8S300.418,448,296,448z"/>
</g>
<g>
</g>
<g>
</g>
<g>
</g>
<g>
</g>
<g>
</g>
<g>
</g>
<g>
</g>
<g>
</g>
<g>
</g>
<g>
</g>
<g>
</g>
<g>
</g>
<g>
</g>
<g>
</g>
<g>
</g>
</svg>
