<svg xmlns="http://www.w3.org/2000/svg" height="571pt" version="1.1" viewBox="0 -56 571.23813 571" width="571pt">
<g id="surface1">
<path d="M 26.328125 448.898438 C 11.773438 448.898438 6.21875 438.84375 14 426.511719 L 271.199219 19.914062 C 278.976562 7.636719 291.730469 7.636719 299.511719 19.914062 L 556.710938 426.511719 C 564.488281 438.789062 558.933594 448.898438 544.378906 448.898438 Z M 26.328125 448.898438 " style=" stroke:none;fill-rule:nonzero;fill:rgb(98.039216%,69.411765%,0.392157%);fill-opacity:1;" />
<path d="M 307.5 276.796875 C 305.226562 294.789062 303.109375 309.394531 285.167969 309.394531 C 267.175781 309.394531 264.953125 294.3125 262.835938 276.796875 L 252.78125 155.445312 C 252.75 137.46875 267.296875 122.878906 285.273438 122.847656 C 285.289062 122.847656 285.3125 122.847656 285.328125 122.847656 C 303.332031 122.757812 317.996094 137.28125 318.085938 155.285156 C 318.085938 155.339844 318.085938 155.394531 318.085938 155.445312 Z M 307.5 276.796875 " style=" stroke:none;fill-rule:nonzero;fill:rgb(100%,100%,100%);fill-opacity:1;" />
<path d="M 316.074219 379.304688 C 316.074219 396.257812 302.332031 410 285.378906 410 C 268.429688 410 254.6875 396.257812 254.6875 379.304688 C 254.6875 362.351562 268.429688 348.609375 285.378906 348.609375 C 302.332031 348.609375 316.074219 362.351562 316.074219 379.304688 Z M 316.074219 379.304688 " style=" stroke:none;fill-rule:nonzero;fill:rgb(100%,100%,100%);fill-opacity:1;" />
<path d="M 26.328125 459.480469 L 544.378906 459.480469 C 557.339844 461.121094 569.179688 451.941406 570.8125 438.980469 C 571.636719 432.488281 569.730469 425.941406 565.546875 420.902344 L 308.457031 14.25 C 301.945312 1.492188 286.328125 -3.574219 273.574219 2.929688 C 268.699219 5.417969 264.742188 9.378906 262.253906 14.25 L 5.054688 420.847656 C -0.613281 428.523438 -1.59375 438.699219 2.515625 447.308594 C 7.566406 455.484375 16.746094 460.175781 26.328125 459.480469 Z M 22.941406 432.171875 L 280.195312 25.523438 C 281.886719 22.878906 283.84375 21.238281 285.484375 21.238281 C 287.125 21.238281 289.03125 22.878906 290.777344 25.523438 L 547.976562 432.121094 C 549.074219 433.570312 549.75 435.289062 549.9375 437.09375 C 548.34375 438.042969 546.484375 438.449219 544.644531 438.261719 L 26.328125 438.261719 C 24.507812 438.417969 22.679688 438.070312 21.039062 437.253906 C 21.117188 435.417969 21.785156 433.65625 22.941406 432.226562 Z M 22.941406 432.171875 " style=" stroke:none;fill-rule:nonzero;fill:rgb(16.862745%,12.941176%,10.196078%);fill-opacity:1;" />
<path d="M 252.515625 278.066406 C 254.527344 294.734375 257.808594 319.980469 285.378906 319.980469 C 312.953125 319.980469 316.023438 295.792969 318.296875 277.640625 L 328.671875 156.292969 C 328.671875 155.972656 328.671875 155.710938 328.671875 155.394531 C 329.507812 131.554688 310.863281 111.558594 287.027344 110.722656 C 263.191406 109.882812 243.191406 128.53125 242.355469 152.363281 C 242.320312 153.371094 242.320312 154.382812 242.355469 155.386719 C 242.355469 155.703125 242.355469 155.96875 242.355469 156.285156 Z M 285.378906 133.429688 C 297.414062 133.371094 307.269531 142.988281 307.5 155.023438 L 297.234375 275.417969 C 294.535156 296.589844 292.578125 298.757812 285.378906 298.757812 C 278.183594 298.757812 276.121094 296.957031 273.578125 275.894531 L 263.367188 155.023438 C 263.597656 143.03125 273.382812 133.429688 285.378906 133.429688 Z M 285.378906 133.429688 " style=" stroke:none;fill-rule:nonzero;fill:rgb(16.862745%,12.941176%,10.196078%);fill-opacity:1;" />
<path d="M 285.378906 337.761719 C 262.582031 337.761719 244.101562 356.242188 244.101562 379.039062 C 244.101562 401.839844 262.582031 420.320312 285.378906 420.320312 C 308.179688 420.320312 326.660156 401.839844 326.660156 379.039062 C 326.632812 356.257812 308.167969 337.792969 285.378906 337.761719 Z M 285.378906 399.203125 C 274.273438 399.203125 265.269531 390.199219 265.269531 379.09375 C 265.269531 367.984375 274.273438 358.980469 285.378906 358.980469 C 296.488281 358.980469 305.492188 367.984375 305.492188 379.09375 C 305.582031 390.226562 296.621094 399.324219 285.488281 399.414062 C 285.449219 399.414062 285.417969 399.414062 285.378906 399.414062 Z M 285.378906 399.203125 " style=" stroke:none;fill-rule:nonzero;fill:rgb(16.862745%,12.941176%,10.196078%);fill-opacity:1;" />
</g>
</svg>