<?xml version="1.0" encoding="iso-8859-1"?>
<!-- Generator: Adobe Illustrator 19.0.0, SVG Export Plug-In . SVG Version: 6.00 Build 0)  -->
<svg version="1.1" id="Capa_1" xmlns="http://www.w3.org/2000/svg" xmlns:xlink="http://www.w3.org/1999/xlink" x="0px" y="0px"
	 viewBox="0 0 512 512" style="enable-background:new 0 0 512 512;" xml:space="preserve">
<g>
	<path style="fill:#F9DCA2;" d="M384.064,367.677l-13.322,94.695l-61.886,15.431l11.244-72.025
		c-10.615,2.687-21.352,4.694-32.16,6.012c-0.071-3.011-0.132-6.286-0.203-6.56c-7.999-33.092,12.623-65.11,43.839-73.049
		c4.796-1.227,9.834-1.876,15.066-1.876h4.938C371.522,330.306,386.842,347.937,384.064,367.677z"/>
	<path style="fill:#F9DCA2;" d="M191.907,405.778l12.191,78.115l-62.843-21.521l-13.322-94.695
		c-2.778-19.74,12.552-37.371,32.484-37.371h4.938c39.267,0,68.131,36.752,58.895,74.924c-0.071,0.274-0.132,3.549-0.193,6.56
		C213.259,410.472,202.512,408.465,191.907,405.778z"/>
</g>
<g>
	<path style="fill:#E5C691;" d="M328.539,351.672l-22.35,143.215h19.77l18.608-121.915c1.008-6.6-2.112-13.147-7.873-16.521
		L328.539,351.672z"/>
	<path style="fill:#E5C691;" d="M150.667,367.677l16.739,103.373l-25.347-8.679l-13.322-94.695
		c-2.778-19.74,12.552-37.371,32.484-37.371h4.938c3.356,0,6.631,0.264,9.814,0.791C159.69,334.717,148.234,350.391,150.667,367.677
		z"/>
	<path style="fill:#E5C691;" d="M331.576,332.182l-9.246,59.321l-2.23,14.275c-10.615,2.687-21.352,4.694-32.16,6.012
		c-0.071-3.011-0.132-6.286-0.203-6.56C279.738,372.138,300.359,340.121,331.576,332.182z"/>
</g>
<path style="fill:#F9DCA2;" d="M321.146,165.336l51.85-66.993l6.444-8.326c5.679-7.582,14.366-11.58,23.161-11.58
	c6.018,0,12.09,1.882,17.29,5.774c4.945,3.701,8.368,8.688,10.145,14.132c2.818,8.635,1.531,18.482-4.338,26.308L338.5,254.107
	c-4.211,6.252-34.05,50.106-24.128,85.475H197.624c9.91-35.368-19.927-79.222-24.139-85.475L86.288,124.651
	c-5.859-7.826-7.146-17.674-4.328-26.308c1.776-5.444,5.2-10.432,10.134-14.132c5.2-3.892,11.282-5.774,17.302-5.774
	c8.794,0,17.482,3.999,23.149,11.58l6.454,8.326l51.85,66.993"/>
<g>
	<path style="fill:#E5C691;" d="M204.03,175.475l75.761,67.185l106.384-134.177l6.444-8.326c5.679-7.582,14.366-11.58,23.161-11.58
		c3.467,0,6.947,0.647,10.273,1.92c-1.679-2.339-3.735-4.468-6.162-6.285c-5.2-3.892-11.272-5.774-17.29-5.774
		c-8.794,0-17.482,3.999-23.161,11.58l-6.444,8.326l-51.85,66.993H196.183L204.03,175.475z"/>
	<path style="fill:#E5C691;" d="M230.815,339.583h-33.194c9.905-35.374-19.933-79.223-24.14-85.479l-87.192-129.45
		c-5.86-7.827-7.148-17.682-4.329-26.31c1.774-5.444,5.201-10.433,10.128-14.133c5.201-3.893,11.284-5.779,17.307-5.779
		c5.88,0,11.71,1.795,16.627,5.242c-0.243,0.172-0.497,0.355-0.74,0.537c-4.938,3.701-8.354,8.689-10.139,14.133
		c-2.819,8.628-1.531,18.483,4.329,26.31l87.202,129.45C210.883,260.36,240.721,304.21,230.815,339.583z"/>
</g>
<path style="fill:#0387D8;" d="M312.492,334.546l0.7,5.799c-20.338,13.515-31.744,38.871-25.458,64.887
	c0.071,0.274,0.132,3.549,0.203,6.56c-10.605,1.318-21.271,1.967-31.937,1.967c-10.676,0-21.342-0.649-31.947-1.967
	c0.061-3.011,0.122-6.286,0.193-6.56c6.326-26.158-5.232-51.646-25.762-65.1l35.211-35.211L312.492,334.546z"/>
<path style="fill:#E22342;" d="M314.371,339.583H197.615c6.56-23.39-4.268-50.47-13.576-67.959
	c30.264-30.173,9.622-83.887,9.622-83.887h124.654c0,0-20.642,53.714,9.622,83.887C318.629,289.103,307.811,316.193,314.371,339.583
	z"/>
<path style="fill:#455256;" d="M282.12,108.666l-14.549-3.042l-11.568-2.413c-5.313-26.218,20.845-53.684,49.618-53.684
	C305.621,49.528,320.099,91.927,282.12,108.666z"/>
<path style="fill:#313C3F;" d="M305.621,49.528c0,0-28.094,21.362-38.05,56.097l-11.568-2.413
	C250.69,76.993,276.848,49.528,305.621,49.528z"/>
<circle style="fill:#F9DCA2;" cx="256" cy="168.442" r="65.222"/>
<path style="fill:#C11133;" d="M232.603,339.583h-34.988c6.56-23.39-4.268-50.47-13.576-67.959
	c30.264-30.173,9.622-83.887,9.622-83.887h20.044l18.979,11.953C232.684,199.691,201.092,297.863,232.603,339.583z"/>
<g>
	<path style="fill:#E5C691;" d="M279.791,229.191v13.468c0,13.147-10.649,23.794-23.794,23.794
		c-13.135,0-23.794-10.649-23.794-23.794v-13.468"/>
	<path style="fill:#E5C691;" d="M224.723,168.441c0-30.149,20.461-55.509,48.252-62.981c-5.414-1.456-11.101-2.245-16.974-2.245
		c-36.024,0-65.226,29.202-65.226,65.226s29.202,65.226,65.226,65.226c5.873,0,11.561-0.789,16.974-2.245
		C245.184,223.95,224.723,198.591,224.723,168.441z"/>
</g>
<path style="fill:#455256;" d="M321.225,168.443c0,10.057-2.271,19.578-6.337,28.084c-1.45-40.413-37.422-48.219-54.09-41.274
	c-8.699,3.619-22.234,4.116-35.12,2.007c-12.318-2.028-24.049-6.428-30.375-12.754c9.551-24.181,33.133-41.295,60.7-41.295
	c5.83,0,11.477,0.76,16.861,2.21C300.714,112.843,321.225,138.251,321.225,168.443z"/>
<path style="fill:#313C3F;" d="M272.975,105.462c-24.272,6.529-42.957,26.705-47.297,51.798
	c-12.318-2.028-24.049-6.428-30.375-12.754c9.551-24.181,33.133-41.295,60.7-41.295c5.83,0,11.477,0.76,16.861,2.21
	C272.904,105.442,272.935,105.452,272.975,105.462z"/>
<g>
	<path style="fill:#E22342;" d="M114.346,494.887h91.464l-5.069-32.52h-58.682c-15.305,0-27.712,12.408-27.712,27.712v4.808H114.346
		z"/>
	<path style="fill:#E22342;" d="M397.653,494.887h-91.464l5.069-32.52h58.682c15.305,0,27.712,12.408,27.712,27.712v4.808H397.653z"
		/>
</g>
<g>
	<polygon style="fill:#455256;" points="58.646,101.906 58.646,17.112 33.125,17.112 7.604,17.112 7.604,101.906 7.604,186.698 
		33.125,186.698 58.646,186.698 	"/>
	<polygon style="fill:#455256;" points="504.396,101.906 504.396,17.112 478.875,17.112 453.353,17.112 453.353,101.906 
		453.353,186.698 478.875,186.698 504.396,186.698 	"/>
</g>
<g>
	<polygon style="fill:#313C3F;" points="58.646,164.366 58.646,142.032 33.125,142.032 7.604,142.032 7.604,164.366 7.604,186.698 
		33.125,186.698 58.646,186.698 	"/>
	<polygon style="fill:#313C3F;" points="504.396,164.366 504.396,142.032 478.875,142.032 453.353,142.032 453.353,164.366 
		453.353,186.698 478.875,186.698 504.396,186.698 	"/>
</g>
<path style="fill:#455256;" d="M314.936,199.096c0-0.872-0.02-1.724-0.051-2.565"/>
<path d="M504.396,9.508h-51.043c-4.199,0-7.604,3.405-7.604,7.604v77.189h-9.107c-2.454-6.438-6.629-12.012-12.196-16.178
	c-6.372-4.77-13.926-7.291-21.847-7.291c-11.432,0-22.345,5.446-29.207,14.572l-6.424,8.3c-0.011,0.014-0.022,0.028-0.033,0.043
	l-0.428,0.553h-56.987c3.939-7.091,5.604-14.463,6.167-20.805c1.255-14.134-2.701-25.926-2.87-26.422
	c-1.051-3.078-3.944-5.147-7.196-5.147c-17.182,0-34.301,8.39-45.792,22.444c-7.405,9.058-11.571,19.559-12.063,29.931h-102.28
	l-0.422-0.544c-0.015-0.02-0.031-0.041-0.048-0.061l-0.008-0.011l-6.417-8.277c-6.852-9.127-17.761-14.574-29.197-14.574
	c-7.926,0-15.485,2.52-21.863,7.295c-5.56,4.17-9.73,9.742-12.18,16.174H66.25V17.112c0-4.199-3.405-7.604-7.604-7.604H7.604
	C3.405,9.508,0,12.913,0,17.112v31.825c0,4.199,3.405,7.604,7.604,7.604l0,0c4.199,0,7.604-3.405,7.604-7.604V24.716h35.834v154.378
	H15.208V84.425c0-4.199-3.405-7.604-7.604-7.604l0,0C3.405,76.821,0,80.225,0,84.425v102.273c0,4.199,3.405,7.604,7.604,7.604
	h51.042c4.199,0,7.604-3.405,7.604-7.604V109.51h6.758c0.418,6.975,2.815,13.784,7.074,19.538l87.097,129.307l0.114,0.169
	c6.697,9.939,26.429,41.838,24.583,69.506c-8.261-3.479-17.243-5.327-26.522-5.327h-4.938c-11.704,0-22.821,5.067-30.499,13.9
	c-7.677,8.833-11.145,20.546-9.515,32.134l12.282,87.3c-14.936,4.118-25.942,17.816-25.942,34.042v4.808
	c0,4.199,3.405,7.604,7.604,7.604h91.276c1.368,0,2.737-0.293,3.924-0.973c2.845-1.631,4.253-4.754,3.777-7.802l-5.069-32.52
	c-0.005-0.033-0.014-0.065-0.02-0.098l-7.081-45.381c18.028,3.749,36.424,5.647,54.846,5.647c18.423,0,36.818-1.898,54.847-5.647
	l-7.1,45.472c0,0.003-0.001,0.005-0.002,0.008l-5.069,32.52c-0.475,3.048,0.933,6.171,3.777,7.802
	c1.186,0.68,2.557,0.973,3.924,0.973h91.275c4.199,0,7.604-3.405,7.604-7.604v-4.808c0-16.229-11.006-29.927-25.945-34.044
	l4.074-28.955c0.537-3.821-1.722-7.617-5.442-8.64c-4.508-1.239-8.948,1.775-9.581,6.265l-4.229,30.057h-43.99l12.437-79.658
	c0.648-4.15-2.191-8.038-6.341-8.685c-4.16-0.655-8.039,2.192-8.685,6.341l-4.188,26.825c-6.059,1.402-12.166,2.581-18.308,3.531
	c-3.723-15.832-0.109-32.213,9.949-44.994c10.111-12.845,25.286-20.212,41.635-20.212h4.489c5.327,0,10.598,1.497,14.945,4.576
	c7.885,5.582,11.752,14.919,10.456,24.132l-4.457,31.679c-0.585,4.159,2.312,8.004,6.47,8.589c4.155,0.587,8.004-2.312,8.589-6.47
	l4.457-31.679c1.631-11.59-1.836-23.304-9.512-32.136c-7.677-8.833-18.794-13.899-30.502-13.899h-4.936
	c-9.279,0-18.262,1.849-26.524,5.328c-1.855-27.668,17.877-59.568,24.574-69.507l87.21-129.474
	c4.264-5.753,6.666-12.562,7.085-19.539h6.761v77.188c0,4.199,3.405,7.604,7.604,7.604h51.047c4.199,0,7.604-3.405,7.604-7.604
	V17.112C512,12.913,508.595,9.508,504.396,9.508z M389.854,487.283H315.07l2.698-17.307h52.279
	C380.138,470.03,388.493,477.548,389.854,487.283z M304.842,326.94h-97.691c0.172-4.798-0.137-9.627-0.827-14.417h99.343
	C304.977,317.314,304.668,322.143,304.842,326.94z M309.049,297.314H202.939c-2.594-8.76-6.097-17.077-9.752-24.454
	c12.334-14.873,15.368-33.446,14.861-49.673c4.971,4.36,10.527,8.066,16.551,10.957v8.515c0,14.692,10.144,27.054,23.795,30.462
	v7.81c0,4.199,3.404,7.604,7.604,7.604c4.2,0,7.604-3.405,7.604-7.604v-7.81c13.651-3.409,23.794-15.771,23.794-30.462v-8.512
	c6.002-2.879,11.539-6.569,16.497-10.907c-0.518,16.272,2.555,34.757,14.908,49.621
	C315.145,280.238,311.644,288.556,309.049,297.314z M256,110.82c31.063,0,56.45,24.712,57.568,55.506
	c-3.88-5.762-8.501-9.843-12.771-12.689c-14.769-9.847-32.604-9.704-42.923-5.404c-13.306,5.544-40.259,2.072-53.168-5.994
	C214.263,123.607,233.661,110.82,256,110.82z M255.997,258.849c-8.928,0-16.191-7.263-16.191-16.19v-3.225
	c5.212,1.188,10.627,1.837,16.194,1.837c5.564,0,10.977-0.648,16.187-1.836v3.224C272.187,251.586,264.925,258.849,255.997,258.849z
	 M256,226.063c-31.772,0-57.622-25.849-57.622-57.622c0-3.988,0.409-7.881,1.183-11.641c18.586,9.945,48.398,12.04,64.162,5.471
	c6.913-2.88,18.97-2.425,28.638,4.019c8.848,5.899,13.912,15.736,14.812,28.588C297.574,213.383,278.246,226.063,256,226.063z
	 M298.716,109.508h56.023l-29.103,37.603C320.948,131.837,311.359,118.697,298.716,109.508z M271.605,73.995
	c7.18-8.781,17.59-14.755,28.167-16.401c0.681,3.718,1.268,8.932,0.77,14.554c-1.142,12.853-7.439,22.325-18.71,28.213
	c-5.967-2.271-12.301-3.784-18.893-4.41C263.045,88.534,266.051,80.787,271.605,73.995z M213.284,109.508
	c-12.644,9.19-22.234,22.332-26.921,37.607l-29.106-37.607H213.284z M92.595,120.403c-0.071-0.105-0.145-0.208-0.22-0.309
	c-4.15-5.542-5.341-12.791-3.186-19.393c1.357-4.162,3.939-7.76,7.46-10.402c3.722-2.786,8.129-4.258,12.744-4.258
	c6.79,0,13.008,3.108,17.059,8.529c0.026,0.035,0.054,0.071,0.081,0.106l5.863,7.575c0.539,1.392,1.765,5.048,1.637,9.276
	c-0.21,6.984-4.025,12.217-11.661,15.998c-3.763,1.863-5.304,6.425-3.441,10.188c1.327,2.68,4.021,4.232,6.821,4.232
	c1.132,0,2.284-0.253,3.368-0.791c10.421-5.16,15.817-12.291,18.281-19.518l35.781,46.222c-0.001,0.196-0.015,0.389-0.015,0.585
	c0,8.751,1.553,17.144,4.395,24.923l0,0c0.017,0.059,0.034,0.118,0.054,0.176c3.2,10.096,11.429,41.847-2.548,64.576
	c-1.894-3.123-3.662-5.858-5.167-8.092L92.595,120.403z M122.145,487.283c1.361-9.734,9.717-17.253,19.808-17.307h52.279
	l2.698,17.307H122.145z M194.452,372.761c-0.647-4.149-4.531-6.987-8.685-6.341c-4.15,0.647-6.989,4.536-6.341,8.685l12.429,79.658
	h-43.992l-12.402-88.145c-1.017-7.227,1.147-14.531,5.934-20.039c4.788-5.509,11.722-8.67,19.021-8.67h4.938
	c16.352,0,31.527,7.368,41.635,20.214c10.058,12.781,13.667,29.16,9.94,44.99c-6.137-0.95-12.238-2.128-18.292-3.528
	L194.452,372.761z M293.058,348.716C280.452,364.73,275.73,385.134,279.915,405c-15.902,1.491-31.942,1.491-47.844-0.001
	c4.189-19.864-0.529-40.264-13.131-56.278c-1.841-2.34-3.826-4.522-5.915-6.573h85.943
	C296.882,344.197,294.898,346.378,293.058,348.716z M419.614,120.088c-0.077,0.103-0.151,0.208-0.224,0.315L332.193,249.86
	l-0.112,0.166c-1.505,2.233-3.272,4.967-5.165,8.089c-11.411-18.534-8.049-43.076-4.592-57.216c0.741-3.029,1.885-6.803,2.075-7.433
	c2.865-7.807,4.43-16.236,4.43-25.024c0-0.199-0.013-0.393-0.015-0.591l35.696-46.121c2.373,6.866,7.604,14.098,18.36,19.424
	c1.085,0.537,2.236,0.791,3.368,0.791c2.8,0,5.494-1.552,6.821-4.231c1.863-3.763,0.322-8.325-3.441-10.188
	c-7.478-3.703-11.286-8.79-11.642-15.556c-0.232-4.413,1.067-8.289,1.635-9.75l5.841-7.547c0.024-0.032,0.05-0.064,0.073-0.096
	c4.063-5.424,10.286-8.534,17.074-8.534c4.609,0,9.012,1.472,12.734,4.258c3.529,2.641,6.114,6.239,7.472,10.403
	C424.961,107.304,423.768,114.551,419.614,120.088z M496.792,179.094h-35.835V24.716h35.835V179.094z"/>
<path d="M274.659,171.042c-4.2,0-7.604,3.405-7.604,7.604v8.507c0,4.199,3.404,7.604,7.604,7.604c4.2,0,7.604-3.405,7.604-7.604
	v-8.507C282.263,174.446,278.86,171.042,274.659,171.042z"/>
<path d="M237.34,171.042c-4.2,0-7.604,3.405-7.604,7.604v8.507c0,4.199,3.404,7.604,7.604,7.604s7.604-3.405,7.604-7.604v-8.507
	C244.944,174.446,241.539,171.042,237.34,171.042z"/>
<g>
</g>
<g>
</g>
<g>
</g>
<g>
</g>
<g>
</g>
<g>
</g>
<g>
</g>
<g>
</g>
<g>
</g>
<g>
</g>
<g>
</g>
<g>
</g>
<g>
</g>
<g>
</g>
<g>
</g>
</svg>
